<?xml version="1.0" encoding="UTF-8" standalone="no"?>
<!DOCTYPE svg PUBLIC "-//W3C//DTD SVG 1.1//EN"
 "http://www.w3.org/Graphics/SVG/1.1/DTD/svg11.dtd">
<!-- Generated by graphviz version 2.47.0 (20210316.0004)
 -->
<!-- Title: dependencies Pages: 1 -->
<svg width="2026pt" height="284pt"
 viewBox="0.00 0.00 2026.00 284.00" xmlns="http://www.w3.org/2000/svg" xmlns:xlink="http://www.w3.org/1999/xlink">
<g id="graph0" class="graph" transform="scale(1 1) rotate(0) translate(4 280)">
<title>dependencies</title>
<polygon fill="white" stroke="transparent" points="-4,4 -4,-280 2022,-280 2022,4 -4,4"/>
<text text-anchor="start" x="988.01" y="-42.4" font-family="Times-12" font-weight="bold" font-size="14.00">Legend</text>
<polygon fill="#ffffb3" stroke="transparent" points="775,-10 775,-30 795,-30 795,-10 775,-10"/>
<text text-anchor="start" x="798.63" y="-15.4" font-family="Times-12" font-size="14.00"> &#160;Declarations</text>
<polygon fill="#8dd3c7" stroke="transparent" points="888,-10 888,-30 908,-30 908,-10 888,-10"/>
<text text-anchor="start" x="911.73" y="-15.4" font-family="Times-12" font-size="14.00"> &#160;Module</text>
<polygon fill="#80b1d3" stroke="transparent" points="974,-10 974,-30 994,-30 994,-10 974,-10"/>
<text text-anchor="start" x="997.78" y="-15.4" font-family="Times-12" font-size="14.00"> &#160;Bootstrap</text>
<polygon fill="#fdb462" stroke="transparent" points="1071,-10 1071,-30 1091,-30 1091,-10 1071,-10"/>
<text text-anchor="start" x="1094.67" y="-15.4" font-family="Times-12" font-size="14.00"> &#160;Providers</text>
<polygon fill="#fb8072" stroke="transparent" points="1167,-10 1167,-30 1187,-30 1187,-10 1167,-10"/>
<text text-anchor="start" x="1190.73" y="-15.4" font-family="Times-12" font-size="14.00"> &#160;Exports</text>
<g id="clust1" class="cluster">
<title>cluster_UsersModule</title>
<polygon fill="none" stroke="black" stroke-dasharray="1,5" points="8,-70 8,-268 2010,-268 2010,-70 8,-70"/>
</g>
<g id="clust6" class="cluster">
<title>cluster_UsersModule_providers</title>
<polygon fill="none" stroke="black" points="16,-78 16,-130 2002,-130 2002,-78 16,-78"/>
</g>
<g id="clust4" class="cluster">
<title>cluster_UsersModule_exports</title>
<polygon fill="none" stroke="black" points="937,-208 937,-260 1047,-260 1047,-208 937,-208"/>
</g>
<!-- UsersService  -->
<g id="node1" class="node">
<title>UsersService </title>
<polygon fill="#fb8072" stroke="black" points="1038.85,-252 945.15,-252 945.15,-216 1038.85,-216 1038.85,-252"/>
<text text-anchor="middle" x="992" y="-229.8" font-family="Times,serif" font-size="14.00">UsersService </text>
</g>
<!-- UsersModule -->
<g id="node2" class="node">
<title>UsersModule</title>
<polygon fill="#8dd3c7" stroke="black" points="1037.92,-187 1034.92,-191 1013.92,-191 1010.92,-187 946.08,-187 946.08,-151 1037.92,-151 1037.92,-187"/>
<text text-anchor="middle" x="992" y="-164.8" font-family="Times,serif" font-size="14.00">UsersModule</text>
</g>
<!-- UsersModule&#45;&gt;UsersService  -->
<g id="edge1" class="edge">
<title>UsersModule&#45;&gt;UsersService </title>
<path fill="none" stroke="black" stroke-dasharray="5,2" d="M992,-187.11C992,-187.11 992,-205.99 992,-205.99"/>
<polygon fill="black" stroke="black" points="988.5,-205.99 992,-215.99 995.5,-205.99 988.5,-205.99"/>
</g>
<!-- CreateManyUsersProvider -->
<g id="node3" class="node">
<title>CreateManyUsersProvider</title>
<ellipse fill="#fdb462" stroke="black" cx="1880" cy="-104" rx="114" ry="18"/>
<text text-anchor="middle" x="1880" y="-99.8" font-family="Times,serif" font-size="14.00">CreateManyUsersProvider</text>
</g>
<!-- CreateManyUsersProvider&#45;&gt;UsersModule -->
<g id="edge2" class="edge">
<title>CreateManyUsersProvider&#45;&gt;UsersModule</title>
<path fill="none" stroke="black" d="M1880,-122.01C1880,-144.49 1880,-180 1880,-180 1880,-180 1047.87,-180 1047.87,-180"/>
<polygon fill="black" stroke="black" points="1047.87,-176.5 1037.87,-180 1047.87,-183.5 1047.87,-176.5"/>
</g>
<!-- CreateUsersProvider -->
<g id="node4" class="node">
<title>CreateUsersProvider</title>
<ellipse fill="#fdb462" stroke="black" cx="1657" cy="-104" rx="91.45" ry="18"/>
<text text-anchor="middle" x="1657" y="-99.8" font-family="Times,serif" font-size="14.00">CreateUsersProvider</text>
</g>
<!-- CreateUsersProvider&#45;&gt;UsersModule -->
<g id="edge3" class="edge">
<title>CreateUsersProvider&#45;&gt;UsersModule</title>
<path fill="none" stroke="black" d="M1657,-122.13C1657,-142.57 1657,-173 1657,-173 1657,-173 1047.97,-173 1047.97,-173"/>
<polygon fill="black" stroke="black" points="1047.97,-169.5 1037.97,-173 1047.97,-176.5 1047.97,-169.5"/>
</g>
<!-- DeleteUserByIdProvider -->
<g id="node5" class="node">
<title>DeleteUserByIdProvider</title>
<ellipse fill="#fdb462" stroke="black" cx="1440" cy="-104" rx="107.06" ry="18"/>
<text text-anchor="middle" x="1440" y="-99.8" font-family="Times,serif" font-size="14.00">DeleteUserByIdProvider</text>
</g>
<!-- DeleteUserByIdProvider&#45;&gt;UsersModule -->
<g id="edge4" class="edge">
<title>DeleteUserByIdProvider&#45;&gt;UsersModule</title>
<path fill="none" stroke="black" d="M1440,-122.27C1440,-140.56 1440,-166 1440,-166 1440,-166 1047.84,-166 1047.84,-166"/>
<polygon fill="black" stroke="black" points="1047.84,-162.5 1037.84,-166 1047.84,-169.5 1047.84,-162.5"/>
</g>
<!-- FindAllUsersProvider -->
<g id="node6" class="node">
<title>FindAllUsersProvider</title>
<ellipse fill="#fdb462" stroke="black" cx="1219" cy="-104" rx="96.14" ry="18"/>
<text text-anchor="middle" x="1219" y="-99.8" font-family="Times,serif" font-size="14.00">FindAllUsersProvider</text>
</g>
<!-- FindAllUsersProvider&#45;&gt;UsersModule -->
<g id="edge5" class="edge">
<title>FindAllUsersProvider&#45;&gt;UsersModule</title>
<path fill="none" stroke="black" d="M1219,-122.01C1219,-138.05 1219,-159 1219,-159 1219,-159 1047.94,-159 1047.94,-159"/>
<polygon fill="black" stroke="black" points="1047.94,-155.5 1037.94,-159 1047.94,-162.5 1047.94,-155.5"/>
</g>
<!-- FindOneByEmailProvider -->
<g id="node7" class="node">
<title>FindOneByEmailProvider</title>
<ellipse fill="#fdb462" stroke="black" cx="992" cy="-104" rx="112.34" ry="18"/>
<text text-anchor="middle" x="992" y="-99.8" font-family="Times,serif" font-size="14.00">FindOneByEmailProvider</text>
</g>
<!-- FindOneByEmailProvider&#45;&gt;UsersModule -->
<g id="edge6" class="edge">
<title>FindOneByEmailProvider&#45;&gt;UsersModule</title>
<path fill="none" stroke="black" d="M992,-122.11C992,-122.11 992,-140.99 992,-140.99"/>
<polygon fill="black" stroke="black" points="988.5,-140.99 992,-150.99 995.5,-140.99 988.5,-140.99"/>
</g>
<!-- FindOneByIdProvider -->
<g id="node8" class="node">
<title>FindOneByIdProvider</title>
<ellipse fill="#fdb462" stroke="black" cx="764" cy="-104" rx="97.3" ry="18"/>
<text text-anchor="middle" x="764" y="-99.8" font-family="Times,serif" font-size="14.00">FindOneByIdProvider</text>
</g>
<!-- FindOneByIdProvider&#45;&gt;UsersModule -->
<g id="edge7" class="edge">
<title>FindOneByIdProvider&#45;&gt;UsersModule</title>
<path fill="none" stroke="black" d="M764,-122.01C764,-138.05 764,-159 764,-159 764,-159 936.14,-159 936.14,-159"/>
<polygon fill="black" stroke="black" points="936.14,-162.5 946.14,-159 936.14,-155.5 936.14,-162.5"/>
</g>
<!-- ReactivateUserByIdProvider -->
<g id="node9" class="node">
<title>ReactivateUserByIdProvider</title>
<ellipse fill="#fdb462" stroke="black" cx="526" cy="-104" rx="122.67" ry="18"/>
<text text-anchor="middle" x="526" y="-99.8" font-family="Times,serif" font-size="14.00">ReactivateUserByIdProvider</text>
</g>
<!-- ReactivateUserByIdProvider&#45;&gt;UsersModule -->
<g id="edge8" class="edge">
<title>ReactivateUserByIdProvider&#45;&gt;UsersModule</title>
<path fill="none" stroke="black" d="M526,-122.27C526,-140.56 526,-166 526,-166 526,-166 936.04,-166 936.04,-166"/>
<polygon fill="black" stroke="black" points="936.04,-169.5 946.04,-166 936.04,-162.5 936.04,-169.5"/>
</g>
<!-- UpdateUserByIdProvider -->
<g id="node10" class="node">
<title>UpdateUserByIdProvider</title>
<ellipse fill="#fdb462" stroke="black" cx="276" cy="-104" rx="109.93" ry="18"/>
<text text-anchor="middle" x="276" y="-99.8" font-family="Times,serif" font-size="14.00">UpdateUserByIdProvider</text>
</g>
<!-- UpdateUserByIdProvider&#45;&gt;UsersModule -->
<g id="edge9" class="edge">
<title>UpdateUserByIdProvider&#45;&gt;UsersModule</title>
<path fill="none" stroke="black" d="M276,-122.13C276,-142.57 276,-173 276,-173 276,-173 936.12,-173 936.12,-173"/>
<polygon fill="black" stroke="black" points="936.12,-176.5 946.12,-173 936.12,-169.5 936.12,-176.5"/>
</g>
<!-- UsersService -->
<g id="node11" class="node">
<title>UsersService</title>
<ellipse fill="#fdb462" stroke="black" cx="86" cy="-104" rx="61.95" ry="18"/>
<text text-anchor="middle" x="86" y="-99.8" font-family="Times,serif" font-size="14.00">UsersService</text>
</g>
<!-- UsersService&#45;&gt;UsersModule -->
<g id="edge10" class="edge">
<title>UsersService&#45;&gt;UsersModule</title>
<path fill="none" stroke="black" d="M86,-122.01C86,-144.49 86,-180 86,-180 86,-180 936.14,-180 936.14,-180"/>
<polygon fill="black" stroke="black" points="936.14,-183.5 946.14,-180 936.14,-176.5 936.14,-183.5"/>
</g>
</g>
</svg>
