<?xml version="1.0" encoding="UTF-8" standalone="no"?>
<!DOCTYPE svg PUBLIC "-//W3C//DTD SVG 1.1//EN"
 "http://www.w3.org/Graphics/SVG/1.1/DTD/svg11.dtd">
<!-- Generated by graphviz version 2.47.0 (20210316.0004)
 -->
<!-- Title: dependencies Pages: 1 -->
<svg width="2067pt" height="284pt"
 viewBox="0.00 0.00 2067.00 284.00" xmlns="http://www.w3.org/2000/svg" xmlns:xlink="http://www.w3.org/1999/xlink">
<g id="graph0" class="graph" transform="scale(1 1) rotate(0) translate(4 280)">
<title>dependencies</title>
<polygon fill="white" stroke="transparent" points="-4,4 -4,-280 2063,-280 2063,4 -4,4"/>
<text text-anchor="start" x="1008.51" y="-42.4" font-family="Times-12" font-weight="bold" font-size="14.00">Legend</text>
<polygon fill="#ffffb3" stroke="transparent" points="795.5,-10 795.5,-30 815.5,-30 815.5,-10 795.5,-10"/>
<text text-anchor="start" x="819.13" y="-15.4" font-family="Times-12" font-size="14.00"> &#160;Declarations</text>
<polygon fill="#8dd3c7" stroke="transparent" points="908.5,-10 908.5,-30 928.5,-30 928.5,-10 908.5,-10"/>
<text text-anchor="start" x="932.23" y="-15.4" font-family="Times-12" font-size="14.00"> &#160;Module</text>
<polygon fill="#80b1d3" stroke="transparent" points="994.5,-10 994.5,-30 1014.5,-30 1014.5,-10 994.5,-10"/>
<text text-anchor="start" x="1018.28" y="-15.4" font-family="Times-12" font-size="14.00"> &#160;Bootstrap</text>
<polygon fill="#fdb462" stroke="transparent" points="1091.5,-10 1091.5,-30 1111.5,-30 1111.5,-10 1091.5,-10"/>
<text text-anchor="start" x="1115.17" y="-15.4" font-family="Times-12" font-size="14.00"> &#160;Providers</text>
<polygon fill="#fb8072" stroke="transparent" points="1187.5,-10 1187.5,-30 1207.5,-30 1207.5,-10 1187.5,-10"/>
<text text-anchor="start" x="1211.23" y="-15.4" font-family="Times-12" font-size="14.00"> &#160;Exports</text>
<g id="clust1" class="cluster">
<title>cluster_CategoriesModule</title>
<polygon fill="none" stroke="black" stroke-dasharray="1,5" points="8,-70 8,-268 2051,-268 2051,-70 8,-70"/>
</g>
<g id="clust6" class="cluster">
<title>cluster_CategoriesModule_providers</title>
<polygon fill="none" stroke="black" points="16,-78 16,-130 2043,-130 2043,-78 16,-78"/>
</g>
<g id="clust4" class="cluster">
<title>cluster_CategoriesModule_exports</title>
<polygon fill="none" stroke="black" points="1020,-208 1020,-260 1158,-260 1158,-208 1020,-208"/>
</g>
<!-- CategoriesService  -->
<g id="node1" class="node">
<title>CategoriesService </title>
<polygon fill="#fb8072" stroke="black" points="1149.84,-252 1028.16,-252 1028.16,-216 1149.84,-216 1149.84,-252"/>
<text text-anchor="middle" x="1089" y="-229.8" font-family="Times,serif" font-size="14.00">CategoriesService </text>
</g>
<!-- CategoriesModule -->
<g id="node2" class="node">
<title>CategoriesModule</title>
<polygon fill="#8dd3c7" stroke="black" points="1148.92,-187 1145.92,-191 1124.92,-191 1121.92,-187 1029.08,-187 1029.08,-151 1148.92,-151 1148.92,-187"/>
<text text-anchor="middle" x="1089" y="-164.8" font-family="Times,serif" font-size="14.00">CategoriesModule</text>
</g>
<!-- CategoriesModule&#45;&gt;CategoriesService  -->
<g id="edge1" class="edge">
<title>CategoriesModule&#45;&gt;CategoriesService </title>
<path fill="none" stroke="black" stroke-dasharray="5,2" d="M1089,-187.11C1089,-187.11 1089,-205.99 1089,-205.99"/>
<polygon fill="black" stroke="black" points="1085.5,-205.99 1089,-215.99 1092.5,-205.99 1085.5,-205.99"/>
</g>
<!-- CategoriesService -->
<g id="node3" class="node">
<title>CategoriesService</title>
<ellipse fill="#fdb462" stroke="black" cx="1954" cy="-104" rx="81.07" ry="18"/>
<text text-anchor="middle" x="1954" y="-99.8" font-family="Times,serif" font-size="14.00">CategoriesService</text>
</g>
<!-- CategoriesService&#45;&gt;CategoriesModule -->
<g id="edge2" class="edge">
<title>CategoriesService&#45;&gt;CategoriesModule</title>
<path fill="none" stroke="black" d="M1954,-122.29C1954,-144.21 1954,-178 1954,-178 1954,-178 1158.8,-178 1158.8,-178"/>
<polygon fill="black" stroke="black" points="1158.8,-174.5 1148.8,-178 1158.8,-181.5 1158.8,-174.5"/>
</g>
<!-- CreateCategoryProvider -->
<g id="node4" class="node">
<title>CreateCategoryProvider</title>
<ellipse fill="#fdb462" stroke="black" cx="1750" cy="-104" rx="104.77" ry="18"/>
<text text-anchor="middle" x="1750" y="-99.8" font-family="Times,serif" font-size="14.00">CreateCategoryProvider</text>
</g>
<!-- CreateCategoryProvider&#45;&gt;CategoriesModule -->
<g id="edge3" class="edge">
<title>CreateCategoryProvider&#45;&gt;CategoriesModule</title>
<path fill="none" stroke="black" d="M1750,-122.11C1750,-141.34 1750,-169 1750,-169 1750,-169 1158.83,-169 1158.83,-169"/>
<polygon fill="black" stroke="black" points="1158.83,-165.5 1148.83,-169 1158.83,-172.5 1158.83,-165.5"/>
</g>
<!-- CreateManyCategoriesProvider -->
<g id="node5" class="node">
<title>CreateManyCategoriesProvider</title>
<ellipse fill="#fdb462" stroke="black" cx="1494" cy="-104" rx="133.12" ry="18"/>
<text text-anchor="middle" x="1494" y="-99.8" font-family="Times,serif" font-size="14.00">CreateManyCategoriesProvider</text>
</g>
<!-- CreateManyCategoriesProvider&#45;&gt;CategoriesModule -->
<g id="edge4" class="edge">
<title>CreateManyCategoriesProvider&#45;&gt;CategoriesModule</title>
<path fill="none" stroke="black" d="M1494,-122.03C1494,-138.4 1494,-160 1494,-160 1494,-160 1158.76,-160 1158.76,-160"/>
<polygon fill="black" stroke="black" points="1158.76,-156.5 1148.76,-160 1158.76,-163.5 1158.76,-156.5"/>
</g>
<!-- DeleteCategoryByIdProvider -->
<g id="node6" class="node">
<title>DeleteCategoryByIdProvider</title>
<ellipse fill="#fdb462" stroke="black" cx="1218" cy="-104" rx="124.4" ry="18"/>
<text text-anchor="middle" x="1218" y="-99.8" font-family="Times,serif" font-size="14.00">DeleteCategoryByIdProvider</text>
</g>
<!-- DeleteCategoryByIdProvider&#45;&gt;CategoriesModule -->
<g id="edge5" class="edge">
<title>DeleteCategoryByIdProvider&#45;&gt;CategoriesModule</title>
<path fill="none" stroke="black" d="M1121.25,-115.32C1121.25,-115.32 1121.25,-140.94 1121.25,-140.94"/>
<polygon fill="black" stroke="black" points="1117.75,-140.94 1121.25,-150.94 1124.75,-140.94 1117.75,-140.94"/>
</g>
<!-- FindAllCategoriesProvider -->
<g id="node7" class="node">
<title>FindAllCategoriesProvider</title>
<ellipse fill="#fdb462" stroke="black" cx="960" cy="-104" rx="115.77" ry="18"/>
<text text-anchor="middle" x="960" y="-99.8" font-family="Times,serif" font-size="14.00">FindAllCategoriesProvider</text>
</g>
<!-- FindAllCategoriesProvider&#45;&gt;CategoriesModule -->
<g id="edge6" class="edge">
<title>FindAllCategoriesProvider&#45;&gt;CategoriesModule</title>
<path fill="none" stroke="black" d="M1052.46,-115.03C1052.46,-115.03 1052.46,-140.78 1052.46,-140.78"/>
<polygon fill="black" stroke="black" points="1048.96,-140.78 1052.46,-150.78 1055.96,-140.78 1048.96,-140.78"/>
</g>
<!-- FindCategoryByIdProvider -->
<g id="node8" class="node">
<title>FindCategoryByIdProvider</title>
<ellipse fill="#fdb462" stroke="black" cx="710" cy="-104" rx="116.92" ry="18"/>
<text text-anchor="middle" x="710" y="-99.8" font-family="Times,serif" font-size="14.00">FindCategoryByIdProvider</text>
</g>
<!-- FindCategoryByIdProvider&#45;&gt;CategoriesModule -->
<g id="edge7" class="edge">
<title>FindCategoryByIdProvider&#45;&gt;CategoriesModule</title>
<path fill="none" stroke="black" d="M710,-122.03C710,-138.4 710,-160 710,-160 710,-160 1018.95,-160 1018.95,-160"/>
<polygon fill="black" stroke="black" points="1018.95,-163.5 1028.95,-160 1018.95,-156.5 1018.95,-163.5"/>
</g>
<!-- ReactivateCategoryByIdProvider -->
<g id="node9" class="node">
<title>ReactivateCategoryByIdProvider</title>
<ellipse fill="#fdb462" stroke="black" cx="436" cy="-104" rx="139.51" ry="18"/>
<text text-anchor="middle" x="436" y="-99.8" font-family="Times,serif" font-size="14.00">ReactivateCategoryByIdProvider</text>
</g>
<!-- ReactivateCategoryByIdProvider&#45;&gt;CategoriesModule -->
<g id="edge8" class="edge">
<title>ReactivateCategoryByIdProvider&#45;&gt;CategoriesModule</title>
<path fill="none" stroke="black" d="M436,-122.11C436,-141.34 436,-169 436,-169 436,-169 1019.03,-169 1019.03,-169"/>
<polygon fill="black" stroke="black" points="1019.03,-172.5 1029.03,-169 1019.03,-165.5 1019.03,-172.5"/>
</g>
<!-- UpdateCategoryByIdProvider -->
<g id="node10" class="node">
<title>UpdateCategoryByIdProvider</title>
<ellipse fill="#fdb462" stroke="black" cx="151" cy="-104" rx="126.77" ry="18"/>
<text text-anchor="middle" x="151" y="-99.8" font-family="Times,serif" font-size="14.00">UpdateCategoryByIdProvider</text>
</g>
<!-- UpdateCategoryByIdProvider&#45;&gt;CategoriesModule -->
<g id="edge9" class="edge">
<title>UpdateCategoryByIdProvider&#45;&gt;CategoriesModule</title>
<path fill="none" stroke="black" d="M151,-122.29C151,-144.21 151,-178 151,-178 151,-178 1019.26,-178 1019.26,-178"/>
<polygon fill="black" stroke="black" points="1019.26,-181.5 1029.26,-178 1019.26,-174.5 1019.26,-181.5"/>
</g>
</g>
</svg>
