<?xml version="1.0" encoding="UTF-8" standalone="no"?>
<!DOCTYPE svg PUBLIC "-//W3C//DTD SVG 1.1//EN"
 "http://www.w3.org/Graphics/SVG/1.1/DTD/svg11.dtd">
<!-- Generated by graphviz version 2.47.0 (20210316.0004)
 -->
<!-- Title: dependencies Pages: 1 -->
<svg width="787pt" height="284pt"
 viewBox="0.00 0.00 787.00 284.00" xmlns="http://www.w3.org/2000/svg" xmlns:xlink="http://www.w3.org/1999/xlink">
<g id="graph0" class="graph" transform="scale(1 1) rotate(0) translate(4 280)">
<title>dependencies</title>
<polygon fill="white" stroke="transparent" points="-4,4 -4,-280 783,-280 783,4 -4,4"/>
<text text-anchor="start" x="368.51" y="-42.4" font-family="Times-12" font-weight="bold" font-size="14.00">Legend</text>
<polygon fill="#ffffb3" stroke="transparent" points="155.5,-10 155.5,-30 175.5,-30 175.5,-10 155.5,-10"/>
<text text-anchor="start" x="179.13" y="-15.4" font-family="Times-12" font-size="14.00"> &#160;Declarations</text>
<polygon fill="#8dd3c7" stroke="transparent" points="268.5,-10 268.5,-30 288.5,-30 288.5,-10 268.5,-10"/>
<text text-anchor="start" x="292.23" y="-15.4" font-family="Times-12" font-size="14.00"> &#160;Module</text>
<polygon fill="#80b1d3" stroke="transparent" points="354.5,-10 354.5,-30 374.5,-30 374.5,-10 354.5,-10"/>
<text text-anchor="start" x="378.28" y="-15.4" font-family="Times-12" font-size="14.00"> &#160;Bootstrap</text>
<polygon fill="#fdb462" stroke="transparent" points="451.5,-10 451.5,-30 471.5,-30 471.5,-10 451.5,-10"/>
<text text-anchor="start" x="475.17" y="-15.4" font-family="Times-12" font-size="14.00"> &#160;Providers</text>
<polygon fill="#fb8072" stroke="transparent" points="547.5,-10 547.5,-30 567.5,-30 567.5,-10 547.5,-10"/>
<text text-anchor="start" x="571.23" y="-15.4" font-family="Times-12" font-size="14.00"> &#160;Exports</text>
<g id="clust1" class="cluster">
<title>cluster_AuthModule</title>
<polygon fill="none" stroke="black" stroke-dasharray="1,5" points="8,-70 8,-268 771,-268 771,-70 8,-70"/>
</g>
<g id="clust6" class="cluster">
<title>cluster_AuthModule_providers</title>
<polygon fill="none" stroke="black" points="16,-78 16,-130 763,-130 763,-78 16,-78"/>
</g>
<g id="clust4" class="cluster">
<title>cluster_AuthModule_exports</title>
<polygon fill="none" stroke="black" points="273,-208 273,-260 511,-260 511,-208 273,-208"/>
</g>
<!-- AuthService  -->
<g id="node1" class="node">
<title>AuthService </title>
<polygon fill="#fb8072" stroke="black" points="502.98,-252 413.02,-252 413.02,-216 502.98,-216 502.98,-252"/>
<text text-anchor="middle" x="458" y="-229.8" font-family="Times,serif" font-size="14.00">AuthService </text>
</g>
<!-- HashingProvider  -->
<g id="node2" class="node">
<title>HashingProvider </title>
<polygon fill="#fb8072" stroke="black" points="395.37,-252 280.63,-252 280.63,-216 395.37,-216 395.37,-252"/>
<text text-anchor="middle" x="338" y="-229.8" font-family="Times,serif" font-size="14.00">HashingProvider </text>
</g>
<!-- AuthModule -->
<g id="node3" class="node">
<title>AuthModule</title>
<polygon fill="#8dd3c7" stroke="black" points="441.55,-187 438.55,-191 417.55,-191 414.55,-187 354.45,-187 354.45,-151 441.55,-151 441.55,-187"/>
<text text-anchor="middle" x="398" y="-164.8" font-family="Times,serif" font-size="14.00">AuthModule</text>
</g>
<!-- AuthModule&#45;&gt;AuthService  -->
<g id="edge1" class="edge">
<title>AuthModule&#45;&gt;AuthService </title>
<path fill="none" stroke="black" stroke-dasharray="5,2" d="M427.52,-187.11C427.52,-187.11 427.52,-205.99 427.52,-205.99"/>
<polygon fill="black" stroke="black" points="424.02,-205.99 427.52,-215.99 431.02,-205.99 424.02,-205.99"/>
</g>
<!-- AuthModule&#45;&gt;HashingProvider  -->
<g id="edge2" class="edge">
<title>AuthModule&#45;&gt;HashingProvider </title>
<path fill="none" stroke="black" stroke-dasharray="5,2" d="M374.7,-187.11C374.7,-187.11 374.7,-205.99 374.7,-205.99"/>
<polygon fill="black" stroke="black" points="371.2,-205.99 374.7,-215.99 378.2,-205.99 371.2,-205.99"/>
</g>
<!-- AuthService -->
<g id="node4" class="node">
<title>AuthService</title>
<ellipse fill="#fdb462" stroke="black" cx="696" cy="-104" rx="59.11" ry="18"/>
<text text-anchor="middle" x="696" y="-99.8" font-family="Times,serif" font-size="14.00">AuthService</text>
</g>
<!-- AuthService&#45;&gt;AuthModule -->
<g id="edge3" class="edge">
<title>AuthService&#45;&gt;AuthModule</title>
<path fill="none" stroke="black" d="M696,-122.11C696,-141.34 696,-169 696,-169 696,-169 451.65,-169 451.65,-169"/>
<polygon fill="black" stroke="black" points="451.65,-165.5 441.65,-169 451.65,-172.5 451.65,-165.5"/>
</g>
<!-- GenerateTokentProvider -->
<g id="node5" class="node">
<title>GenerateTokentProvider</title>
<ellipse fill="#fdb462" stroke="black" cx="512" cy="-104" rx="106.48" ry="18"/>
<text text-anchor="middle" x="512" y="-99.8" font-family="Times,serif" font-size="14.00">GenerateTokentProvider</text>
</g>
<!-- GenerateTokentProvider&#45;&gt;AuthModule -->
<g id="edge4" class="edge">
<title>GenerateTokentProvider&#45;&gt;AuthModule</title>
<path fill="none" stroke="black" d="M423.64,-114.16C423.64,-114.16 423.64,-140.81 423.64,-140.81"/>
<polygon fill="black" stroke="black" points="420.14,-140.81 423.64,-150.81 427.14,-140.81 420.14,-140.81"/>
</g>
<!-- RefreshTokensProvider -->
<g id="node6" class="node">
<title>RefreshTokensProvider</title>
<ellipse fill="#fdb462" stroke="black" cx="285" cy="-104" rx="102.99" ry="18"/>
<text text-anchor="middle" x="285" y="-99.8" font-family="Times,serif" font-size="14.00">RefreshTokensProvider</text>
</g>
<!-- RefreshTokensProvider&#45;&gt;AuthModule -->
<g id="edge5" class="edge">
<title>RefreshTokensProvider&#45;&gt;AuthModule</title>
<path fill="none" stroke="black" d="M370.99,-113.87C370.99,-113.87 370.99,-140.91 370.99,-140.91"/>
<polygon fill="black" stroke="black" points="367.49,-140.91 370.99,-150.91 374.49,-140.91 367.49,-140.91"/>
</g>
<!-- SignInProvider -->
<g id="node7" class="node">
<title>SignInProvider</title>
<ellipse fill="#fdb462" stroke="black" cx="94" cy="-104" rx="70.08" ry="18"/>
<text text-anchor="middle" x="94" y="-99.8" font-family="Times,serif" font-size="14.00">SignInProvider</text>
</g>
<!-- SignInProvider&#45;&gt;AuthModule -->
<g id="edge6" class="edge">
<title>SignInProvider&#45;&gt;AuthModule</title>
<path fill="none" stroke="black" d="M94,-122.11C94,-141.34 94,-169 94,-169 94,-169 344.44,-169 344.44,-169"/>
<polygon fill="black" stroke="black" points="344.44,-172.5 354.44,-169 344.44,-165.5 344.44,-172.5"/>
</g>
</g>
</svg>
