<?xml version="1.0" encoding="UTF-8" standalone="no"?>
<!DOCTYPE svg PUBLIC "-//W3C//DTD SVG 1.1//EN"
 "http://www.w3.org/Graphics/SVG/1.1/DTD/svg11.dtd">
<!-- Generated by graphviz version 2.47.0 (20210316.0004)
 -->
<!-- Title: dependencies Pages: 1 -->
<svg width="1961pt" height="211pt"
 viewBox="0.00 0.00 1961.00 211.00" xmlns="http://www.w3.org/2000/svg" xmlns:xlink="http://www.w3.org/1999/xlink">
<g id="graph0" class="graph" transform="scale(1 1) rotate(0) translate(4 207)">
<title>dependencies</title>
<polygon fill="white" stroke="transparent" points="-4,4 -4,-207 1957,-207 1957,4 -4,4"/>
<text text-anchor="start" x="955.51" y="-42.4" font-family="Times-12" font-weight="bold" font-size="14.00">Legend</text>
<polygon fill="#ffffb3" stroke="transparent" points="742.5,-10 742.5,-30 762.5,-30 762.5,-10 742.5,-10"/>
<text text-anchor="start" x="766.13" y="-15.4" font-family="Times-12" font-size="14.00"> &#160;Declarations</text>
<polygon fill="#8dd3c7" stroke="transparent" points="855.5,-10 855.5,-30 875.5,-30 875.5,-10 855.5,-10"/>
<text text-anchor="start" x="879.23" y="-15.4" font-family="Times-12" font-size="14.00"> &#160;Module</text>
<polygon fill="#80b1d3" stroke="transparent" points="941.5,-10 941.5,-30 961.5,-30 961.5,-10 941.5,-10"/>
<text text-anchor="start" x="965.28" y="-15.4" font-family="Times-12" font-size="14.00"> &#160;Bootstrap</text>
<polygon fill="#fdb462" stroke="transparent" points="1038.5,-10 1038.5,-30 1058.5,-30 1058.5,-10 1038.5,-10"/>
<text text-anchor="start" x="1062.17" y="-15.4" font-family="Times-12" font-size="14.00"> &#160;Providers</text>
<polygon fill="#fb8072" stroke="transparent" points="1134.5,-10 1134.5,-30 1154.5,-30 1154.5,-10 1134.5,-10"/>
<text text-anchor="start" x="1158.23" y="-15.4" font-family="Times-12" font-size="14.00"> &#160;Exports</text>
<g id="clust1" class="cluster">
<title>cluster_ProductsModule</title>
<polygon fill="none" stroke="black" stroke-dasharray="1,5" points="8,-70 8,-195 1945,-195 1945,-70 8,-70"/>
</g>
<g id="clust6" class="cluster">
<title>cluster_ProductsModule_providers</title>
<polygon fill="none" stroke="black" points="16,-78 16,-130 1937,-130 1937,-78 16,-78"/>
</g>
<!-- CreateManyProductsProvider -->
<g id="node1" class="node">
<title>CreateManyProductsProvider</title>
<ellipse fill="#fdb462" stroke="black" cx="1803" cy="-104" rx="125.62" ry="18"/>
<text text-anchor="middle" x="1803" y="-99.8" font-family="Times,serif" font-size="14.00">CreateManyProductsProvider</text>
</g>
<!-- ProductsModule -->
<g id="node9" class="node">
<title>ProductsModule</title>
<polygon fill="#8dd3c7" stroke="black" points="1020.04,-187 1017.04,-191 996.04,-191 993.04,-187 911.96,-187 911.96,-151 1020.04,-151 1020.04,-187"/>
<text text-anchor="middle" x="966" y="-164.8" font-family="Times,serif" font-size="14.00">ProductsModule</text>
</g>
<!-- CreateManyProductsProvider&#45;&gt;ProductsModule -->
<g id="edge1" class="edge">
<title>CreateManyProductsProvider&#45;&gt;ProductsModule</title>
<path fill="none" stroke="black" d="M1803,-122.29C1803,-144.21 1803,-178 1803,-178 1803,-178 1030.27,-178 1030.27,-178"/>
<polygon fill="black" stroke="black" points="1030.27,-174.5 1020.27,-178 1030.27,-181.5 1030.27,-174.5"/>
</g>
<!-- CreateProductProvider -->
<g id="node2" class="node">
<title>CreateProductProvider</title>
<ellipse fill="#fdb462" stroke="black" cx="1560" cy="-104" rx="99.56" ry="18"/>
<text text-anchor="middle" x="1560" y="-99.8" font-family="Times,serif" font-size="14.00">CreateProductProvider</text>
</g>
<!-- CreateProductProvider&#45;&gt;ProductsModule -->
<g id="edge2" class="edge">
<title>CreateProductProvider&#45;&gt;ProductsModule</title>
<path fill="none" stroke="black" d="M1560,-122.11C1560,-141.34 1560,-169 1560,-169 1560,-169 1030.29,-169 1030.29,-169"/>
<polygon fill="black" stroke="black" points="1030.29,-165.5 1020.29,-169 1030.29,-172.5 1030.29,-165.5"/>
</g>
<!-- DeleteProductByIdProvider -->
<g id="node3" class="node">
<title>DeleteProductByIdProvider</title>
<ellipse fill="#fdb462" stroke="black" cx="1324" cy="-104" rx="118.68" ry="18"/>
<text text-anchor="middle" x="1324" y="-99.8" font-family="Times,serif" font-size="14.00">DeleteProductByIdProvider</text>
</g>
<!-- DeleteProductByIdProvider&#45;&gt;ProductsModule -->
<g id="edge3" class="edge">
<title>DeleteProductByIdProvider&#45;&gt;ProductsModule</title>
<path fill="none" stroke="black" d="M1324,-122.03C1324,-138.4 1324,-160 1324,-160 1324,-160 1030.37,-160 1030.37,-160"/>
<polygon fill="black" stroke="black" points="1030.37,-156.5 1020.37,-160 1030.37,-163.5 1030.37,-156.5"/>
</g>
<!-- FindAllProductProvider -->
<g id="node4" class="node">
<title>FindAllProductProvider</title>
<ellipse fill="#fdb462" stroke="black" cx="1083" cy="-104" rx="104.25" ry="18"/>
<text text-anchor="middle" x="1083" y="-99.8" font-family="Times,serif" font-size="14.00">FindAllProductProvider</text>
</g>
<!-- FindAllProductProvider&#45;&gt;ProductsModule -->
<g id="edge4" class="edge">
<title>FindAllProductProvider&#45;&gt;ProductsModule</title>
<path fill="none" stroke="black" d="M999.45,-115.03C999.45,-115.03 999.45,-140.78 999.45,-140.78"/>
<polygon fill="black" stroke="black" points="995.95,-140.78 999.45,-150.78 1002.95,-140.78 995.95,-140.78"/>
</g>
<!-- FindProductByIdProvider -->
<g id="node5" class="node">
<title>FindProductByIdProvider</title>
<ellipse fill="#fdb462" stroke="black" cx="849" cy="-104" rx="111.2" ry="18"/>
<text text-anchor="middle" x="849" y="-99.8" font-family="Times,serif" font-size="14.00">FindProductByIdProvider</text>
</g>
<!-- FindProductByIdProvider&#45;&gt;ProductsModule -->
<g id="edge5" class="edge">
<title>FindProductByIdProvider&#45;&gt;ProductsModule</title>
<path fill="none" stroke="black" d="M936.04,-115.32C936.04,-115.32 936.04,-140.94 936.04,-140.94"/>
<polygon fill="black" stroke="black" points="932.54,-140.94 936.04,-150.94 939.54,-140.94 932.54,-140.94"/>
</g>
<!-- ProductsService -->
<g id="node6" class="node">
<title>ProductsService</title>
<ellipse fill="#fdb462" stroke="black" cx="646" cy="-104" rx="73.57" ry="18"/>
<text text-anchor="middle" x="646" y="-99.8" font-family="Times,serif" font-size="14.00">ProductsService</text>
</g>
<!-- ProductsService&#45;&gt;ProductsModule -->
<g id="edge6" class="edge">
<title>ProductsService&#45;&gt;ProductsModule</title>
<path fill="none" stroke="black" d="M646,-122.03C646,-138.4 646,-160 646,-160 646,-160 901.72,-160 901.72,-160"/>
<polygon fill="black" stroke="black" points="901.72,-163.5 911.72,-160 901.72,-156.5 901.72,-163.5"/>
</g>
<!-- ReactivateProductByIdProvider -->
<g id="node7" class="node">
<title>ReactivateProductByIdProvider</title>
<ellipse fill="#fdb462" stroke="black" cx="420" cy="-104" rx="134.29" ry="18"/>
<text text-anchor="middle" x="420" y="-99.8" font-family="Times,serif" font-size="14.00">ReactivateProductByIdProvider</text>
</g>
<!-- ReactivateProductByIdProvider&#45;&gt;ProductsModule -->
<g id="edge7" class="edge">
<title>ReactivateProductByIdProvider&#45;&gt;ProductsModule</title>
<path fill="none" stroke="black" d="M420,-122.11C420,-141.34 420,-169 420,-169 420,-169 901.65,-169 901.65,-169"/>
<polygon fill="black" stroke="black" points="901.65,-172.5 911.65,-169 901.65,-165.5 901.65,-172.5"/>
</g>
<!-- UpdateProductByIdProvider -->
<g id="node8" class="node">
<title>UpdateProductByIdProvider</title>
<ellipse fill="#fdb462" stroke="black" cx="146" cy="-104" rx="121.55" ry="18"/>
<text text-anchor="middle" x="146" y="-99.8" font-family="Times,serif" font-size="14.00">UpdateProductByIdProvider</text>
</g>
<!-- UpdateProductByIdProvider&#45;&gt;ProductsModule -->
<g id="edge8" class="edge">
<title>UpdateProductByIdProvider&#45;&gt;ProductsModule</title>
<path fill="none" stroke="black" d="M146,-122.29C146,-144.21 146,-178 146,-178 146,-178 901.88,-178 901.88,-178"/>
<polygon fill="black" stroke="black" points="901.88,-181.5 911.88,-178 901.88,-174.5 901.88,-181.5"/>
</g>
</g>
</svg>
