<?xml version="1.0" encoding="UTF-8" standalone="no"?>
<!DOCTYPE svg PUBLIC "-//W3C//DTD SVG 1.1//EN"
 "http://www.w3.org/Graphics/SVG/1.1/DTD/svg11.dtd">
<!-- Generated by graphviz version 2.47.0 (20210316.0004)
 -->
<!-- Title: dependencies Pages: 1 -->
<svg width="1125pt" height="211pt"
 viewBox="0.00 0.00 1125.00 211.00" xmlns="http://www.w3.org/2000/svg" xmlns:xlink="http://www.w3.org/1999/xlink">
<g id="graph0" class="graph" transform="scale(1 1) rotate(0) translate(4 207)">
<title>dependencies</title>
<polygon fill="white" stroke="transparent" points="-4,4 -4,-207 1121,-207 1121,4 -4,4"/>
<text text-anchor="start" x="537.51" y="-42.4" font-family="Times-12" font-weight="bold" font-size="14.00">Legend</text>
<polygon fill="#ffffb3" stroke="transparent" points="324.5,-10 324.5,-30 344.5,-30 344.5,-10 324.5,-10"/>
<text text-anchor="start" x="348.13" y="-15.4" font-family="Times-12" font-size="14.00"> &#160;Declarations</text>
<polygon fill="#8dd3c7" stroke="transparent" points="437.5,-10 437.5,-30 457.5,-30 457.5,-10 437.5,-10"/>
<text text-anchor="start" x="461.23" y="-15.4" font-family="Times-12" font-size="14.00"> &#160;Module</text>
<polygon fill="#80b1d3" stroke="transparent" points="523.5,-10 523.5,-30 543.5,-30 543.5,-10 523.5,-10"/>
<text text-anchor="start" x="547.28" y="-15.4" font-family="Times-12" font-size="14.00"> &#160;Bootstrap</text>
<polygon fill="#fdb462" stroke="transparent" points="620.5,-10 620.5,-30 640.5,-30 640.5,-10 620.5,-10"/>
<text text-anchor="start" x="644.17" y="-15.4" font-family="Times-12" font-size="14.00"> &#160;Providers</text>
<polygon fill="#fb8072" stroke="transparent" points="716.5,-10 716.5,-30 736.5,-30 736.5,-10 716.5,-10"/>
<text text-anchor="start" x="740.23" y="-15.4" font-family="Times-12" font-size="14.00"> &#160;Exports</text>
<g id="clust1" class="cluster">
<title>cluster_OrdersModule</title>
<polygon fill="none" stroke="black" stroke-dasharray="1,5" points="8,-70 8,-195 1109,-195 1109,-70 8,-70"/>
</g>
<g id="clust6" class="cluster">
<title>cluster_OrdersModule_providers</title>
<polygon fill="none" stroke="black" points="16,-78 16,-130 1101,-130 1101,-78 16,-78"/>
</g>
<!-- CreateManyOrderProvider -->
<g id="node1" class="node">
<title>CreateManyOrderProvider</title>
<ellipse fill="#fdb462" stroke="black" cx="978" cy="-104" rx="114.57" ry="18"/>
<text text-anchor="middle" x="978" y="-99.8" font-family="Times,serif" font-size="14.00">CreateManyOrderProvider</text>
</g>
<!-- OrdersModule -->
<g id="node6" class="node">
<title>OrdersModule</title>
<polygon fill="#8dd3c7" stroke="black" points="580.64,-187 577.64,-191 556.64,-191 553.64,-187 483.36,-187 483.36,-151 580.64,-151 580.64,-187"/>
<text text-anchor="middle" x="532" y="-164.8" font-family="Times,serif" font-size="14.00">OrdersModule</text>
</g>
<!-- CreateManyOrderProvider&#45;&gt;OrdersModule -->
<g id="edge1" class="edge">
<title>CreateManyOrderProvider&#45;&gt;OrdersModule</title>
<path fill="none" stroke="black" d="M978,-122.28C978,-143.32 978,-175 978,-175 978,-175 591.01,-175 591.01,-175"/>
<polygon fill="black" stroke="black" points="591.01,-171.5 581.01,-175 591.01,-178.5 591.01,-171.5"/>
</g>
<!-- CreateOrderProvider -->
<g id="node2" class="node">
<title>CreateOrderProvider</title>
<ellipse fill="#fdb462" stroke="black" cx="753" cy="-104" rx="92.01" ry="18"/>
<text text-anchor="middle" x="753" y="-99.8" font-family="Times,serif" font-size="14.00">CreateOrderProvider</text>
</g>
<!-- CreateOrderProvider&#45;&gt;OrdersModule -->
<g id="edge2" class="edge">
<title>CreateOrderProvider&#45;&gt;OrdersModule</title>
<path fill="none" stroke="black" d="M753,-122.02C753,-139.37 753,-163 753,-163 753,-163 590.77,-163 590.77,-163"/>
<polygon fill="black" stroke="black" points="590.77,-159.5 580.77,-163 590.77,-166.5 590.77,-159.5"/>
</g>
<!-- DeleteOrderByIdProvider -->
<g id="node3" class="node">
<title>DeleteOrderByIdProvider</title>
<ellipse fill="#fdb462" stroke="black" cx="532" cy="-104" rx="111.13" ry="18"/>
<text text-anchor="middle" x="532" y="-99.8" font-family="Times,serif" font-size="14.00">DeleteOrderByIdProvider</text>
</g>
<!-- DeleteOrderByIdProvider&#45;&gt;OrdersModule -->
<g id="edge3" class="edge">
<title>DeleteOrderByIdProvider&#45;&gt;OrdersModule</title>
<path fill="none" stroke="black" d="M532,-122.11C532,-122.11 532,-140.99 532,-140.99"/>
<polygon fill="black" stroke="black" points="528.5,-140.99 532,-150.99 535.5,-140.99 528.5,-140.99"/>
</g>
<!-- OrdersService -->
<g id="node4" class="node">
<title>OrdersService</title>
<ellipse fill="#fdb462" stroke="black" cx="336" cy="-104" rx="66.03" ry="18"/>
<text text-anchor="middle" x="336" y="-99.8" font-family="Times,serif" font-size="14.00">OrdersService</text>
</g>
<!-- OrdersService&#45;&gt;OrdersModule -->
<g id="edge4" class="edge">
<title>OrdersService&#45;&gt;OrdersModule</title>
<path fill="none" stroke="black" d="M336,-122.02C336,-139.37 336,-163 336,-163 336,-163 473.3,-163 473.3,-163"/>
<polygon fill="black" stroke="black" points="473.3,-166.5 483.3,-163 473.3,-159.5 473.3,-166.5"/>
</g>
<!-- UpdateOrderByIdProvider -->
<g id="node5" class="node">
<title>UpdateOrderByIdProvider</title>
<ellipse fill="#fdb462" stroke="black" cx="138" cy="-104" rx="114.01" ry="18"/>
<text text-anchor="middle" x="138" y="-99.8" font-family="Times,serif" font-size="14.00">UpdateOrderByIdProvider</text>
</g>
<!-- UpdateOrderByIdProvider&#45;&gt;OrdersModule -->
<g id="edge5" class="edge">
<title>UpdateOrderByIdProvider&#45;&gt;OrdersModule</title>
<path fill="none" stroke="black" d="M138,-122.28C138,-143.32 138,-175 138,-175 138,-175 473.29,-175 473.29,-175"/>
<polygon fill="black" stroke="black" points="473.29,-178.5 483.29,-175 473.29,-171.5 473.29,-178.5"/>
</g>
</g>
</svg>
