<?xml version="1.0" encoding="UTF-8" standalone="no"?>
<!DOCTYPE svg PUBLIC "-//W3C//DTD SVG 1.1//EN"
 "http://www.w3.org/Graphics/SVG/1.1/DTD/svg11.dtd">
<!-- Generated by graphviz version 2.47.0 (20210316.0004)
 -->
<!-- Title: dependencies Pages: 1 -->
<svg width="1170pt" height="211pt"
 viewBox="0.00 0.00 1170.00 211.00" xmlns="http://www.w3.org/2000/svg" xmlns:xlink="http://www.w3.org/1999/xlink">
<g id="graph0" class="graph" transform="scale(1 1) rotate(0) translate(4 207)">
<title>dependencies</title>
<polygon fill="white" stroke="transparent" points="-4,4 -4,-207 1166,-207 1166,4 -4,4"/>
<text text-anchor="start" x="560.01" y="-42.4" font-family="Times-12" font-weight="bold" font-size="14.00">Legend</text>
<polygon fill="#ffffb3" stroke="transparent" points="347,-10 347,-30 367,-30 367,-10 347,-10"/>
<text text-anchor="start" x="370.63" y="-15.4" font-family="Times-12" font-size="14.00"> &#160;Declarations</text>
<polygon fill="#8dd3c7" stroke="transparent" points="460,-10 460,-30 480,-30 480,-10 460,-10"/>
<text text-anchor="start" x="483.73" y="-15.4" font-family="Times-12" font-size="14.00"> &#160;Module</text>
<polygon fill="#80b1d3" stroke="transparent" points="546,-10 546,-30 566,-30 566,-10 546,-10"/>
<text text-anchor="start" x="569.78" y="-15.4" font-family="Times-12" font-size="14.00"> &#160;Bootstrap</text>
<polygon fill="#fdb462" stroke="transparent" points="643,-10 643,-30 663,-30 663,-10 643,-10"/>
<text text-anchor="start" x="666.67" y="-15.4" font-family="Times-12" font-size="14.00"> &#160;Providers</text>
<polygon fill="#fb8072" stroke="transparent" points="739,-10 739,-30 759,-30 759,-10 739,-10"/>
<text text-anchor="start" x="762.73" y="-15.4" font-family="Times-12" font-size="14.00"> &#160;Exports</text>
<g id="clust1" class="cluster">
<title>cluster_AppModule</title>
<polygon fill="none" stroke="black" stroke-dasharray="1,5" points="8,-70 8,-195 1154,-195 1154,-70 8,-70"/>
</g>
<g id="clust6" class="cluster">
<title>cluster_AppModule_providers</title>
<polygon fill="none" stroke="black" points="1016,-78 1016,-130 1146,-130 1146,-78 1016,-78"/>
</g>
<g id="clust3" class="cluster">
<title>cluster_AppModule_imports</title>
<polygon fill="none" stroke="black" points="16,-78 16,-130 1008,-130 1008,-78 16,-78"/>
</g>
<!-- AddressesModule -->
<g id="node1" class="node">
<title>AddressesModule</title>
<polygon fill="#8dd3c7" stroke="black" points="999.58,-122 996.58,-126 975.58,-126 972.58,-122 882.42,-122 882.42,-86 999.58,-86 999.58,-122"/>
<text text-anchor="middle" x="941" y="-99.8" font-family="Times,serif" font-size="14.00">AddressesModule</text>
</g>
<!-- AppModule -->
<g id="node9" class="node">
<title>AppModule</title>
<polygon fill="#8dd3c7" stroke="black" points="614.66,-187 611.66,-191 590.66,-191 587.66,-187 531.34,-187 531.34,-151 614.66,-151 614.66,-187"/>
<text text-anchor="middle" x="573" y="-164.8" font-family="Times,serif" font-size="14.00">AppModule</text>
</g>
<!-- AddressesModule&#45;&gt;AppModule -->
<g id="edge1" class="edge">
<title>AddressesModule&#45;&gt;AppModule</title>
<path fill="none" stroke="black" d="M941,-122.13C941,-142.57 941,-173 941,-173 941,-173 624.86,-173 624.86,-173"/>
<polygon fill="black" stroke="black" points="624.86,-169.5 614.86,-173 624.86,-176.5 624.86,-169.5"/>
</g>
<!-- AuthModule -->
<g id="node2" class="node">
<title>AuthModule</title>
<polygon fill="#8dd3c7" stroke="black" points="864.55,-122 861.55,-126 840.55,-126 837.55,-122 777.45,-122 777.45,-86 864.55,-86 864.55,-122"/>
<text text-anchor="middle" x="821" y="-99.8" font-family="Times,serif" font-size="14.00">AuthModule</text>
</g>
<!-- AuthModule&#45;&gt;AppModule -->
<g id="edge2" class="edge">
<title>AuthModule&#45;&gt;AppModule</title>
<path fill="none" stroke="black" d="M821,-122.27C821,-140.56 821,-166 821,-166 821,-166 624.79,-166 624.79,-166"/>
<polygon fill="black" stroke="black" points="624.79,-162.5 614.79,-166 624.79,-169.5 624.79,-162.5"/>
</g>
<!-- CategoriesModule -->
<g id="node3" class="node">
<title>CategoriesModule</title>
<polygon fill="#8dd3c7" stroke="black" points="759.92,-122 756.92,-126 735.92,-126 732.92,-122 640.08,-122 640.08,-86 759.92,-86 759.92,-122"/>
<text text-anchor="middle" x="700" y="-99.8" font-family="Times,serif" font-size="14.00">CategoriesModule</text>
</g>
<!-- CategoriesModule&#45;&gt;AppModule -->
<g id="edge3" class="edge">
<title>CategoriesModule&#45;&gt;AppModule</title>
<path fill="none" stroke="black" d="M700,-122.01C700,-138.05 700,-159 700,-159 700,-159 624.94,-159 624.94,-159"/>
<polygon fill="black" stroke="black" points="624.94,-155.5 614.94,-159 624.94,-162.5 624.94,-155.5"/>
</g>
<!-- OrdersModule -->
<g id="node4" class="node">
<title>OrdersModule</title>
<polygon fill="#8dd3c7" stroke="black" points="621.64,-122 618.64,-126 597.64,-126 594.64,-122 524.36,-122 524.36,-86 621.64,-86 621.64,-122"/>
<text text-anchor="middle" x="573" y="-99.8" font-family="Times,serif" font-size="14.00">OrdersModule</text>
</g>
<!-- OrdersModule&#45;&gt;AppModule -->
<g id="edge4" class="edge">
<title>OrdersModule&#45;&gt;AppModule</title>
<path fill="none" stroke="black" d="M573,-122.11C573,-122.11 573,-140.99 573,-140.99"/>
<polygon fill="black" stroke="black" points="569.5,-140.99 573,-150.99 576.5,-140.99 569.5,-140.99"/>
</g>
<!-- PaginationModule -->
<g id="node5" class="node">
<title>PaginationModule</title>
<polygon fill="#8dd3c7" stroke="black" points="505.93,-122 502.93,-126 481.93,-126 478.93,-122 386.07,-122 386.07,-86 505.93,-86 505.93,-122"/>
<text text-anchor="middle" x="446" y="-99.8" font-family="Times,serif" font-size="14.00">PaginationModule</text>
</g>
<!-- PaginationModule&#45;&gt;AppModule -->
<g id="edge5" class="edge">
<title>PaginationModule&#45;&gt;AppModule</title>
<path fill="none" stroke="black" d="M446,-122.01C446,-138.05 446,-159 446,-159 446,-159 521.06,-159 521.06,-159"/>
<polygon fill="black" stroke="black" points="521.06,-162.5 531.06,-159 521.06,-155.5 521.06,-162.5"/>
</g>
<!-- ProductsModule -->
<g id="node6" class="node">
<title>ProductsModule</title>
<polygon fill="#8dd3c7" stroke="black" points="368.04,-122 365.04,-126 344.04,-126 341.04,-122 259.96,-122 259.96,-86 368.04,-86 368.04,-122"/>
<text text-anchor="middle" x="314" y="-99.8" font-family="Times,serif" font-size="14.00">ProductsModule</text>
</g>
<!-- ProductsModule&#45;&gt;AppModule -->
<g id="edge6" class="edge">
<title>ProductsModule&#45;&gt;AppModule</title>
<path fill="none" stroke="black" d="M314,-122.27C314,-140.56 314,-166 314,-166 314,-166 521.1,-166 521.1,-166"/>
<polygon fill="black" stroke="black" points="521.1,-169.5 531.1,-166 521.1,-162.5 521.1,-169.5"/>
</g>
<!-- ReviewsModule -->
<g id="node7" class="node">
<title>ReviewsModule</title>
<polygon fill="#8dd3c7" stroke="black" points="241.76,-122 238.76,-126 217.76,-126 214.76,-122 134.24,-122 134.24,-86 241.76,-86 241.76,-122"/>
<text text-anchor="middle" x="188" y="-99.8" font-family="Times,serif" font-size="14.00">ReviewsModule</text>
</g>
<!-- ReviewsModule&#45;&gt;AppModule -->
<g id="edge7" class="edge">
<title>ReviewsModule&#45;&gt;AppModule</title>
<path fill="none" stroke="black" d="M188,-122.13C188,-142.57 188,-173 188,-173 188,-173 521.07,-173 521.07,-173"/>
<polygon fill="black" stroke="black" points="521.07,-176.5 531.07,-173 521.07,-169.5 521.07,-176.5"/>
</g>
<!-- UsersModule -->
<g id="node8" class="node">
<title>UsersModule</title>
<polygon fill="#8dd3c7" stroke="black" points="115.92,-122 112.92,-126 91.92,-126 88.92,-122 24.08,-122 24.08,-86 115.92,-86 115.92,-122"/>
<text text-anchor="middle" x="70" y="-99.8" font-family="Times,serif" font-size="14.00">UsersModule</text>
</g>
<!-- UsersModule&#45;&gt;AppModule -->
<g id="edge8" class="edge">
<title>UsersModule&#45;&gt;AppModule</title>
<path fill="none" stroke="black" d="M70,-122.01C70,-144.49 70,-180 70,-180 70,-180 520.98,-180 520.98,-180"/>
<polygon fill="black" stroke="black" points="520.98,-183.5 530.98,-180 520.98,-176.5 520.98,-183.5"/>
</g>
<!-- AppService -->
<g id="node10" class="node">
<title>AppService</title>
<ellipse fill="#fdb462" stroke="black" cx="1081" cy="-104" rx="56.74" ry="18"/>
<text text-anchor="middle" x="1081" y="-99.8" font-family="Times,serif" font-size="14.00">AppService</text>
</g>
<!-- AppService&#45;&gt;AppModule -->
<g id="edge9" class="edge">
<title>AppService&#45;&gt;AppModule</title>
<path fill="none" stroke="black" d="M1081,-122.01C1081,-144.49 1081,-180 1081,-180 1081,-180 625,-180 625,-180"/>
<polygon fill="black" stroke="black" points="625,-176.5 615,-180 625,-183.5 625,-176.5"/>
</g>
</g>
</svg>
