<?xml version="1.0" encoding="UTF-8" standalone="no"?>
<!DOCTYPE svg PUBLIC "-//W3C//DTD SVG 1.1//EN"
 "http://www.w3.org/Graphics/SVG/1.1/DTD/svg11.dtd">
<!-- Generated by graphviz version 2.47.0 (20210316.0004)
 -->
<!-- Title: dependencies Pages: 1 -->
<svg width="9010pt" height="287pt"
 viewBox="0.00 0.00 9010.00 287.00" xmlns="http://www.w3.org/2000/svg" xmlns:xlink="http://www.w3.org/1999/xlink">
<g id="graph0" class="graph" transform="scale(1 1) rotate(0) translate(4 283)">
<title>dependencies</title>
<polygon fill="white" stroke="transparent" points="-4,4 -4,-283 9006,-283 9006,4 -4,4"/>
<text text-anchor="start" x="4480.01" y="-42.4" font-family="Times-12" font-weight="bold" font-size="14.00">Legend</text>
<polygon fill="#ffffb3" stroke="transparent" points="4267,-10 4267,-30 4287,-30 4287,-10 4267,-10"/>
<text text-anchor="start" x="4290.63" y="-15.4" font-family="Times-12" font-size="14.00"> &#160;Declarations</text>
<polygon fill="#8dd3c7" stroke="transparent" points="4380,-10 4380,-30 4400,-30 4400,-10 4380,-10"/>
<text text-anchor="start" x="4403.73" y="-15.4" font-family="Times-12" font-size="14.00"> &#160;Module</text>
<polygon fill="#80b1d3" stroke="transparent" points="4466,-10 4466,-30 4486,-30 4486,-10 4466,-10"/>
<text text-anchor="start" x="4489.78" y="-15.4" font-family="Times-12" font-size="14.00"> &#160;Bootstrap</text>
<polygon fill="#fdb462" stroke="transparent" points="4563,-10 4563,-30 4583,-30 4583,-10 4563,-10"/>
<text text-anchor="start" x="4586.67" y="-15.4" font-family="Times-12" font-size="14.00"> &#160;Providers</text>
<polygon fill="#fb8072" stroke="transparent" points="4659,-10 4659,-30 4679,-30 4679,-10 4659,-10"/>
<text text-anchor="start" x="4682.73" y="-15.4" font-family="Times-12" font-size="14.00"> &#160;Exports</text>
<g id="clust1" class="cluster">
<title>cluster_AddressesModule</title>
<polygon fill="none" stroke="black" stroke-dasharray="1,5" points="8,-70 8,-206 200,-206 200,-70 8,-70"/>
</g>
<g id="clust6" class="cluster">
<title>cluster_AddressesModule_providers</title>
<polygon fill="none" stroke="black" points="16,-78 16,-130 192,-130 192,-78 16,-78"/>
</g>
<g id="clust7" class="cluster">
<title>cluster_AppModule</title>
<polygon fill="none" stroke="black" stroke-dasharray="1,5" points="3964,-146 3964,-271 4974,-271 4974,-146 3964,-146"/>
</g>
<g id="clust9" class="cluster">
<title>cluster_AppModule_imports</title>
<polygon fill="none" stroke="black" points="4110,-154 4110,-206 4966,-206 4966,-154 4110,-154"/>
</g>
<g id="clust12" class="cluster">
<title>cluster_AppModule_providers</title>
<polygon fill="none" stroke="black" points="3972,-154 3972,-206 4102,-206 4102,-154 3972,-154"/>
</g>
<g id="clust13" class="cluster">
<title>cluster_AuthModule</title>
<polygon fill="none" stroke="black" stroke-dasharray="1,5" points="208,-70 208,-138 1217,-138 1217,-70 208,-70"/>
</g>
<g id="clust16" class="cluster">
<title>cluster_AuthModule_exports</title>
<polygon fill="none" stroke="black" points="971,-78 971,-130 1209,-130 1209,-78 971,-78"/>
</g>
<g id="clust18" class="cluster">
<title>cluster_AuthModule_providers</title>
<polygon fill="none" stroke="black" points="216,-78 216,-130 963,-130 963,-78 216,-78"/>
</g>
<g id="clust19" class="cluster">
<title>cluster_CategoriesModule</title>
<polygon fill="none" stroke="black" stroke-dasharray="1,5" points="1225,-70 1225,-138 3414,-138 3414,-70 1225,-70"/>
</g>
<g id="clust22" class="cluster">
<title>cluster_CategoriesModule_exports</title>
<polygon fill="none" stroke="black" points="3268,-78 3268,-130 3406,-130 3406,-78 3268,-78"/>
</g>
<g id="clust24" class="cluster">
<title>cluster_CategoriesModule_providers</title>
<polygon fill="none" stroke="black" points="1233,-78 1233,-130 3260,-130 3260,-78 1233,-78"/>
</g>
<g id="clust25" class="cluster">
<title>cluster_OrdersModule</title>
<polygon fill="none" stroke="black" stroke-dasharray="1,5" points="5550,-70 5550,-138 6651,-138 6651,-70 5550,-70"/>
</g>
<g id="clust30" class="cluster">
<title>cluster_OrdersModule_providers</title>
<polygon fill="none" stroke="black" points="5558,-78 5558,-130 6643,-130 6643,-78 5558,-78"/>
</g>
<g id="clust31" class="cluster">
<title>cluster_PaginationModule</title>
<polygon fill="none" stroke="black" stroke-dasharray="1,5" points="6659,-70 6659,-138 6863,-138 6863,-70 6659,-70"/>
</g>
<g id="clust36" class="cluster">
<title>cluster_PaginationModule_providers</title>
<polygon fill="none" stroke="black" points="6667,-78 6667,-130 6855,-130 6855,-78 6667,-78"/>
</g>
<g id="clust37" class="cluster">
<title>cluster_ProductsModule</title>
<polygon fill="none" stroke="black" stroke-dasharray="1,5" points="6871,-70 6871,-138 8808,-138 8808,-70 6871,-70"/>
</g>
<g id="clust42" class="cluster">
<title>cluster_ProductsModule_providers</title>
<polygon fill="none" stroke="black" points="6879,-78 6879,-130 8800,-130 8800,-78 6879,-78"/>
</g>
<g id="clust43" class="cluster">
<title>cluster_ReviewsModule</title>
<polygon fill="none" stroke="black" stroke-dasharray="1,5" points="8816,-70 8816,-138 8994,-138 8994,-70 8816,-70"/>
</g>
<g id="clust48" class="cluster">
<title>cluster_ReviewsModule_providers</title>
<polygon fill="none" stroke="black" points="8824,-78 8824,-130 8986,-130 8986,-78 8824,-78"/>
</g>
<g id="clust49" class="cluster">
<title>cluster_UsersModule</title>
<polygon fill="none" stroke="black" stroke-dasharray="1,5" points="3422,-70 3422,-138 5542,-138 5542,-70 3422,-70"/>
</g>
<g id="clust52" class="cluster">
<title>cluster_UsersModule_exports</title>
<polygon fill="none" stroke="black" points="5424,-78 5424,-130 5534,-130 5534,-78 5424,-78"/>
</g>
<g id="clust54" class="cluster">
<title>cluster_UsersModule_providers</title>
<polygon fill="none" stroke="black" points="3430,-78 3430,-130 5416,-130 5416,-78 3430,-78"/>
</g>
<!-- AddressesService -->
<g id="node1" class="node">
<title>AddressesService</title>
<ellipse fill="#fdb462" stroke="black" cx="104" cy="-104" rx="79.85" ry="18"/>
<text text-anchor="middle" x="104" y="-99.8" font-family="Times,serif" font-size="14.00">AddressesService</text>
</g>
<!-- AddressesModule -->
<g id="node2" class="node">
<title>AddressesModule</title>
<polygon fill="#8dd3c7" stroke="black" points="176.58,-198 173.58,-202 152.58,-202 149.58,-198 59.42,-198 59.42,-162 176.58,-162 176.58,-198"/>
<text text-anchor="middle" x="118" y="-175.8" font-family="Times,serif" font-size="14.00">AddressesModule</text>
</g>
<!-- AddressesService&#45;&gt;AddressesModule -->
<g id="edge1" class="edge">
<title>AddressesService&#45;&gt;AddressesModule</title>
<path fill="none" stroke="black" d="M118,-122.01C118,-122.01 118,-151.85 118,-151.85"/>
<polygon fill="black" stroke="black" points="114.5,-151.85 118,-161.85 121.5,-151.85 114.5,-151.85"/>
</g>
<!-- AppModule -->
<g id="node10" class="node">
<title>AppModule</title>
<polygon fill="#8dd3c7" stroke="black" points="4447.66,-263 4444.66,-267 4423.66,-267 4420.66,-263 4364.34,-263 4364.34,-227 4447.66,-227 4447.66,-263"/>
<text text-anchor="middle" x="4406" y="-240.8" font-family="Times,serif" font-size="14.00">AppModule</text>
</g>
<!-- AddressesModule&#45;&gt;AppModule -->
<g id="edge2" class="edge">
<title>AddressesModule&#45;&gt;AppModule</title>
<path fill="none" stroke="black" d="M118,-198.01C118,-220.49 118,-256 118,-256 118,-256 4354.25,-256 4354.25,-256"/>
<polygon fill="black" stroke="black" points="4354.25,-259.5 4364.25,-256 4354.25,-252.5 4354.25,-259.5"/>
</g>
<!-- AuthModule -->
<g id="node3" class="node">
<title>AuthModule</title>
<polygon fill="#8dd3c7" stroke="black" points="4205.55,-198 4202.55,-202 4181.55,-202 4178.55,-198 4118.45,-198 4118.45,-162 4205.55,-162 4205.55,-198"/>
<text text-anchor="middle" x="4162" y="-175.8" font-family="Times,serif" font-size="14.00">AuthModule</text>
</g>
<!-- AuthModule&#45;&gt;AppModule -->
<g id="edge3" class="edge">
<title>AuthModule&#45;&gt;AppModule</title>
<path fill="none" stroke="black" d="M4162,-198.27C4162,-216.56 4162,-242 4162,-242 4162,-242 4354.33,-242 4354.33,-242"/>
<polygon fill="black" stroke="black" points="4354.33,-245.5 4364.33,-242 4354.33,-238.5 4354.33,-245.5"/>
</g>
<!-- AuthService  -->
<g id="node12" class="node">
<title>AuthService </title>
<polygon fill="#fb8072" stroke="black" points="1200.98,-122 1111.02,-122 1111.02,-86 1200.98,-86 1200.98,-122"/>
<text text-anchor="middle" x="1156" y="-99.8" font-family="Times,serif" font-size="14.00">AuthService </text>
</g>
<!-- AuthModule&#45;&gt;AuthService  -->
<g id="edge11" class="edge">
<title>AuthModule&#45;&gt;AuthService </title>
<path fill="none" stroke="black" stroke-dasharray="5,2" d="M4193.27,-161.51C4193.27,-149.86 4193.27,-137 4193.27,-137 4193.27,-137 1156,-137 1156,-137 1156,-137 1156,-132.04 1156,-132.04"/>
<polygon fill="black" stroke="black" points="1159.5,-132.04 1156,-122.04 1152.5,-132.04 1159.5,-132.04"/>
</g>
<!-- HashingProvider  -->
<g id="node13" class="node">
<title>HashingProvider </title>
<polygon fill="#fb8072" stroke="black" points="1093.37,-122 978.63,-122 978.63,-86 1093.37,-86 1093.37,-122"/>
<text text-anchor="middle" x="1036" y="-99.8" font-family="Times,serif" font-size="14.00">HashingProvider </text>
</g>
<!-- AuthModule&#45;&gt;HashingProvider  -->
<g id="edge12" class="edge">
<title>AuthModule&#45;&gt;HashingProvider </title>
<path fill="none" stroke="black" stroke-dasharray="5,2" d="M4180.76,-161.94C4180.76,-150.56 4180.76,-138 4180.76,-138 4180.76,-138 1036,-138 1036,-138 1036,-138 1036,-132.19 1036,-132.19"/>
<polygon fill="black" stroke="black" points="1039.5,-132.19 1036,-122.19 1032.5,-132.19 1039.5,-132.19"/>
</g>
<!-- CategoriesModule -->
<g id="node4" class="node">
<title>CategoriesModule</title>
<polygon fill="#8dd3c7" stroke="black" points="4342.92,-198 4339.92,-202 4318.92,-202 4315.92,-198 4223.08,-198 4223.08,-162 4342.92,-162 4342.92,-198"/>
<text text-anchor="middle" x="4283" y="-175.8" font-family="Times,serif" font-size="14.00">CategoriesModule</text>
</g>
<!-- CategoriesModule&#45;&gt;AppModule -->
<g id="edge4" class="edge">
<title>CategoriesModule&#45;&gt;AppModule</title>
<path fill="none" stroke="black" d="M4283,-198.01C4283,-214.05 4283,-235 4283,-235 4283,-235 4354.01,-235 4354.01,-235"/>
<polygon fill="black" stroke="black" points="4354.01,-238.5 4364.01,-235 4354.01,-231.5 4354.01,-238.5"/>
</g>
<!-- CategoriesService  -->
<g id="node18" class="node">
<title>CategoriesService </title>
<polygon fill="#fb8072" stroke="black" points="3397.84,-122 3276.16,-122 3276.16,-86 3397.84,-86 3397.84,-122"/>
<text text-anchor="middle" x="3337" y="-99.8" font-family="Times,serif" font-size="14.00">CategoriesService </text>
</g>
<!-- CategoriesModule&#45;&gt;CategoriesService  -->
<g id="edge17" class="edge">
<title>CategoriesModule&#45;&gt;CategoriesService </title>
<path fill="none" stroke="black" stroke-dasharray="5,2" d="M4265.92,-161.81C4265.92,-146.82 4265.92,-128 4265.92,-128 4265.92,-128 3337,-128 3337,-128 3337,-128 3337,-127.42 3337,-127.42"/>
<polygon fill="black" stroke="black" points="3340.5,-132.19 3337,-122.19 3333.5,-132.19 3340.5,-132.19"/>
</g>
<!-- OrdersModule -->
<g id="node5" class="node">
<title>OrdersModule</title>
<polygon fill="#8dd3c7" stroke="black" points="4567.64,-198 4564.64,-202 4543.64,-202 4540.64,-198 4470.36,-198 4470.36,-162 4567.64,-162 4567.64,-198"/>
<text text-anchor="middle" x="4519" y="-175.8" font-family="Times,serif" font-size="14.00">OrdersModule</text>
</g>
<!-- OrdersModule&#45;&gt;AppModule -->
<g id="edge5" class="edge">
<title>OrdersModule&#45;&gt;AppModule</title>
<path fill="none" stroke="black" d="M4519,-198.01C4519,-214.05 4519,-235 4519,-235 4519,-235 4457.76,-235 4457.76,-235"/>
<polygon fill="black" stroke="black" points="4457.76,-231.5 4447.76,-235 4457.76,-238.5 4457.76,-231.5"/>
</g>
<!-- PaginationModule -->
<g id="node6" class="node">
<title>PaginationModule</title>
<polygon fill="#8dd3c7" stroke="black" points="4705.93,-198 4702.93,-202 4681.93,-202 4678.93,-198 4586.07,-198 4586.07,-162 4705.93,-162 4705.93,-198"/>
<text text-anchor="middle" x="4646" y="-175.8" font-family="Times,serif" font-size="14.00">PaginationModule</text>
</g>
<!-- PaginationModule&#45;&gt;AppModule -->
<g id="edge6" class="edge">
<title>PaginationModule&#45;&gt;AppModule</title>
<path fill="none" stroke="black" d="M4646,-198.27C4646,-216.56 4646,-242 4646,-242 4646,-242 4457.8,-242 4457.8,-242"/>
<polygon fill="black" stroke="black" points="4457.8,-238.5 4447.8,-242 4457.8,-245.5 4457.8,-238.5"/>
</g>
<!-- ProductsModule -->
<g id="node7" class="node">
<title>ProductsModule</title>
<polygon fill="#8dd3c7" stroke="black" points="4832.04,-198 4829.04,-202 4808.04,-202 4805.04,-198 4723.96,-198 4723.96,-162 4832.04,-162 4832.04,-198"/>
<text text-anchor="middle" x="4778" y="-175.8" font-family="Times,serif" font-size="14.00">ProductsModule</text>
</g>
<!-- ProductsModule&#45;&gt;AppModule -->
<g id="edge7" class="edge">
<title>ProductsModule&#45;&gt;AppModule</title>
<path fill="none" stroke="black" d="M4778,-198.13C4778,-218.57 4778,-249 4778,-249 4778,-249 4457.95,-249 4457.95,-249"/>
<polygon fill="black" stroke="black" points="4457.95,-245.5 4447.95,-249 4457.95,-252.5 4457.95,-245.5"/>
</g>
<!-- ReviewsModule -->
<g id="node8" class="node">
<title>ReviewsModule</title>
<polygon fill="#8dd3c7" stroke="black" points="4957.76,-198 4954.76,-202 4933.76,-202 4930.76,-198 4850.24,-198 4850.24,-162 4957.76,-162 4957.76,-198"/>
<text text-anchor="middle" x="4904" y="-175.8" font-family="Times,serif" font-size="14.00">ReviewsModule</text>
</g>
<!-- ReviewsModule&#45;&gt;AppModule -->
<g id="edge8" class="edge">
<title>ReviewsModule&#45;&gt;AppModule</title>
<path fill="none" stroke="black" d="M4904,-198.01C4904,-220.49 4904,-256 4904,-256 4904,-256 4458.03,-256 4458.03,-256"/>
<polygon fill="black" stroke="black" points="4458.03,-252.5 4448.03,-256 4458.03,-259.5 4458.03,-252.5"/>
</g>
<!-- UsersModule -->
<g id="node9" class="node">
<title>UsersModule</title>
<polygon fill="#8dd3c7" stroke="black" points="4451.92,-198 4448.92,-202 4427.92,-202 4424.92,-198 4360.08,-198 4360.08,-162 4451.92,-162 4451.92,-198"/>
<text text-anchor="middle" x="4406" y="-175.8" font-family="Times,serif" font-size="14.00">UsersModule</text>
</g>
<!-- UsersModule&#45;&gt;AppModule -->
<g id="edge9" class="edge">
<title>UsersModule&#45;&gt;AppModule</title>
<path fill="none" stroke="black" d="M4406,-198.11C4406,-198.11 4406,-216.99 4406,-216.99"/>
<polygon fill="black" stroke="black" points="4402.5,-216.99 4406,-226.99 4409.5,-216.99 4402.5,-216.99"/>
</g>
<!-- UsersService  -->
<g id="node42" class="node">
<title>UsersService </title>
<polygon fill="#fb8072" stroke="black" points="5525.85,-122 5432.15,-122 5432.15,-86 5525.85,-86 5525.85,-122"/>
<text text-anchor="middle" x="5479" y="-99.8" font-family="Times,serif" font-size="14.00">UsersService </text>
</g>
<!-- UsersModule&#45;&gt;UsersService  -->
<g id="edge41" class="edge">
<title>UsersModule&#45;&gt;UsersService </title>
<path fill="none" stroke="black" stroke-dasharray="5,2" d="M4410.16,-161.96C4410.16,-154.25 4410.16,-147 4410.16,-147 4410.16,-147 5479,-147 5479,-147 5479,-147 5479,-132.49 5479,-132.49"/>
<polygon fill="black" stroke="black" points="5482.5,-132.49 5479,-122.49 5475.5,-132.49 5482.5,-132.49"/>
</g>
<!-- AppService -->
<g id="node11" class="node">
<title>AppService</title>
<ellipse fill="#fdb462" stroke="black" cx="4037" cy="-180" rx="56.74" ry="18"/>
<text text-anchor="middle" x="4037" y="-175.8" font-family="Times,serif" font-size="14.00">AppService</text>
</g>
<!-- AppService&#45;&gt;AppModule -->
<g id="edge10" class="edge">
<title>AppService&#45;&gt;AppModule</title>
<path fill="none" stroke="black" d="M4037,-198.13C4037,-218.57 4037,-249 4037,-249 4037,-249 4354.03,-249 4354.03,-249"/>
<polygon fill="black" stroke="black" points="4354.03,-252.5 4364.03,-249 4354.03,-245.5 4354.03,-252.5"/>
</g>
<!-- AuthService -->
<g id="node14" class="node">
<title>AuthService</title>
<ellipse fill="#fdb462" stroke="black" cx="896" cy="-104" rx="59.11" ry="18"/>
<text text-anchor="middle" x="896" y="-99.8" font-family="Times,serif" font-size="14.00">AuthService</text>
</g>
<!-- AuthService&#45;&gt;AuthModule -->
<g id="edge13" class="edge">
<title>AuthService&#45;&gt;AuthModule</title>
<path fill="none" stroke="black" d="M896,-122.32C896,-130.79 896,-139 896,-139 896,-139 4168.25,-139 4168.25,-139 4168.25,-139 4168.25,-151.9 4168.25,-151.9"/>
<polygon fill="black" stroke="black" points="4164.75,-151.9 4168.25,-161.9 4171.75,-151.9 4164.75,-151.9"/>
</g>
<!-- GenerateTokentProvider -->
<g id="node15" class="node">
<title>GenerateTokentProvider</title>
<ellipse fill="#fdb462" stroke="black" cx="712" cy="-104" rx="106.48" ry="18"/>
<text text-anchor="middle" x="712" y="-99.8" font-family="Times,serif" font-size="14.00">GenerateTokentProvider</text>
</g>
<!-- GenerateTokentProvider&#45;&gt;AuthModule -->
<g id="edge14" class="edge">
<title>GenerateTokentProvider&#45;&gt;AuthModule</title>
<path fill="none" stroke="black" d="M712,-122C712,-131 712,-140 712,-140 712,-140 4155.75,-140 4155.75,-140 4155.75,-140 4155.75,-151.87 4155.75,-151.87"/>
<polygon fill="black" stroke="black" points="4152.25,-151.87 4155.75,-161.87 4159.25,-151.87 4152.25,-151.87"/>
</g>
<!-- RefreshTokensProvider -->
<g id="node16" class="node">
<title>RefreshTokensProvider</title>
<ellipse fill="#fdb462" stroke="black" cx="485" cy="-104" rx="102.99" ry="18"/>
<text text-anchor="middle" x="485" y="-99.8" font-family="Times,serif" font-size="14.00">RefreshTokensProvider</text>
</g>
<!-- RefreshTokensProvider&#45;&gt;AuthModule -->
<g id="edge15" class="edge">
<title>RefreshTokensProvider&#45;&gt;AuthModule</title>
<path fill="none" stroke="black" d="M485,-122.07C485,-131.46 485,-141 485,-141 485,-141 4143.24,-141 4143.24,-141 4143.24,-141 4143.24,-151.87 4143.24,-151.87"/>
<polygon fill="black" stroke="black" points="4139.74,-151.87 4143.24,-161.87 4146.74,-151.87 4139.74,-151.87"/>
</g>
<!-- SignInProvider -->
<g id="node17" class="node">
<title>SignInProvider</title>
<ellipse fill="#fdb462" stroke="black" cx="294" cy="-104" rx="70.08" ry="18"/>
<text text-anchor="middle" x="294" y="-99.8" font-family="Times,serif" font-size="14.00">SignInProvider</text>
</g>
<!-- SignInProvider&#45;&gt;AuthModule -->
<g id="edge16" class="edge">
<title>SignInProvider&#45;&gt;AuthModule</title>
<path fill="none" stroke="black" d="M294,-122.11C294,-131.9 294,-142 294,-142 294,-142 4130.73,-142 4130.73,-142 4130.73,-142 4130.73,-151.89 4130.73,-151.89"/>
<polygon fill="black" stroke="black" points="4127.23,-151.89 4130.73,-161.89 4134.23,-151.89 4127.23,-151.89"/>
</g>
<!-- CategoriesService -->
<g id="node19" class="node">
<title>CategoriesService</title>
<ellipse fill="#fdb462" stroke="black" cx="3171" cy="-104" rx="81.07" ry="18"/>
<text text-anchor="middle" x="3171" y="-99.8" font-family="Times,serif" font-size="14.00">CategoriesService</text>
</g>
<!-- CategoriesService&#45;&gt;CategoriesModule -->
<g id="edge18" class="edge">
<title>CategoriesService&#45;&gt;CategoriesModule</title>
<path fill="none" stroke="black" d="M3171,-122.17C3171,-126.05 3171,-129 3171,-129 3171,-129 4261.19,-129 4261.19,-129 4261.19,-129 4261.19,-151.88 4261.19,-151.88"/>
<polygon fill="black" stroke="black" points="4257.69,-151.88 4261.19,-161.88 4264.69,-151.88 4257.69,-151.88"/>
</g>
<!-- CreateCategoryProvider -->
<g id="node20" class="node">
<title>CreateCategoryProvider</title>
<ellipse fill="#fdb462" stroke="black" cx="2967" cy="-104" rx="104.77" ry="18"/>
<text text-anchor="middle" x="2967" y="-99.8" font-family="Times,serif" font-size="14.00">CreateCategoryProvider</text>
</g>
<!-- CreateCategoryProvider&#45;&gt;CategoriesModule -->
<g id="edge19" class="edge">
<title>CreateCategoryProvider&#45;&gt;CategoriesModule</title>
<path fill="none" stroke="black" d="M2967,-122.06C2967,-126.49 2967,-130 2967,-130 2967,-130 4256.45,-130 4256.45,-130 4256.45,-130 4256.45,-151.95 4256.45,-151.95"/>
<polygon fill="black" stroke="black" points="4252.95,-151.95 4256.45,-161.95 4259.95,-151.95 4252.95,-151.95"/>
</g>
<!-- CreateManyCategoriesProvider -->
<g id="node21" class="node">
<title>CreateManyCategoriesProvider</title>
<ellipse fill="#fdb462" stroke="black" cx="2711" cy="-104" rx="133.12" ry="18"/>
<text text-anchor="middle" x="2711" y="-99.8" font-family="Times,serif" font-size="14.00">CreateManyCategoriesProvider</text>
</g>
<!-- CreateManyCategoriesProvider&#45;&gt;CategoriesModule -->
<g id="edge20" class="edge">
<title>CreateManyCategoriesProvider&#45;&gt;CategoriesModule</title>
<path fill="none" stroke="black" d="M2711,-122.16C2711,-127.04 2711,-131 2711,-131 2711,-131 4251.71,-131 4251.71,-131 4251.71,-131 4251.71,-151.75 4251.71,-151.75"/>
<polygon fill="black" stroke="black" points="4248.21,-151.75 4251.71,-161.75 4255.21,-151.75 4248.21,-151.75"/>
</g>
<!-- DeleteCategoryByIdProvider -->
<g id="node22" class="node">
<title>DeleteCategoryByIdProvider</title>
<ellipse fill="#fdb462" stroke="black" cx="2435" cy="-104" rx="124.4" ry="18"/>
<text text-anchor="middle" x="2435" y="-99.8" font-family="Times,serif" font-size="14.00">DeleteCategoryByIdProvider</text>
</g>
<!-- DeleteCategoryByIdProvider&#45;&gt;CategoriesModule -->
<g id="edge21" class="edge">
<title>DeleteCategoryByIdProvider&#45;&gt;CategoriesModule</title>
<path fill="none" stroke="black" d="M2435,-122.21C2435,-127.55 2435,-132 2435,-132 2435,-132 4246.98,-132 4246.98,-132 4246.98,-132 4246.98,-151.85 4246.98,-151.85"/>
<polygon fill="black" stroke="black" points="4243.48,-151.85 4246.98,-161.85 4250.48,-151.85 4243.48,-151.85"/>
</g>
<!-- FindAllCategoriesProvider -->
<g id="node23" class="node">
<title>FindAllCategoriesProvider</title>
<ellipse fill="#fdb462" stroke="black" cx="2177" cy="-104" rx="115.77" ry="18"/>
<text text-anchor="middle" x="2177" y="-99.8" font-family="Times,serif" font-size="14.00">FindAllCategoriesProvider</text>
</g>
<!-- FindAllCategoriesProvider&#45;&gt;CategoriesModule -->
<g id="edge22" class="edge">
<title>FindAllCategoriesProvider&#45;&gt;CategoriesModule</title>
<path fill="none" stroke="black" d="M2177,-122.2C2177,-128.03 2177,-133 2177,-133 2177,-133 4242.24,-133 4242.24,-133 4242.24,-133 4242.24,-151.96 4242.24,-151.96"/>
<polygon fill="black" stroke="black" points="4238.74,-151.96 4242.24,-161.96 4245.74,-151.96 4238.74,-151.96"/>
</g>
<!-- FindCategoryByIdProvider -->
<g id="node24" class="node">
<title>FindCategoryByIdProvider</title>
<ellipse fill="#fdb462" stroke="black" cx="1927" cy="-104" rx="116.92" ry="18"/>
<text text-anchor="middle" x="1927" y="-99.8" font-family="Times,serif" font-size="14.00">FindCategoryByIdProvider</text>
</g>
<!-- FindCategoryByIdProvider&#45;&gt;CategoriesModule -->
<g id="edge23" class="edge">
<title>FindCategoryByIdProvider&#45;&gt;CategoriesModule</title>
<path fill="none" stroke="black" d="M1927,-122.14C1927,-128.46 1927,-134 1927,-134 1927,-134 4237.5,-134 4237.5,-134 4237.5,-134 4237.5,-151.82 4237.5,-151.82"/>
<polygon fill="black" stroke="black" points="4234,-151.82 4237.5,-161.82 4241,-151.82 4234,-151.82"/>
</g>
<!-- ReactivateCategoryByIdProvider -->
<g id="node25" class="node">
<title>ReactivateCategoryByIdProvider</title>
<ellipse fill="#fdb462" stroke="black" cx="1653" cy="-104" rx="139.51" ry="18"/>
<text text-anchor="middle" x="1653" y="-99.8" font-family="Times,serif" font-size="14.00">ReactivateCategoryByIdProvider</text>
</g>
<!-- ReactivateCategoryByIdProvider&#45;&gt;CategoriesModule -->
<g id="edge24" class="edge">
<title>ReactivateCategoryByIdProvider&#45;&gt;CategoriesModule</title>
<path fill="none" stroke="black" d="M1653,-122.03C1653,-128.85 1653,-135 1653,-135 1653,-135 4232.77,-135 4232.77,-135 4232.77,-135 4232.77,-151.96 4232.77,-151.96"/>
<polygon fill="black" stroke="black" points="4229.27,-151.96 4232.77,-161.96 4236.27,-151.96 4229.27,-151.96"/>
</g>
<!-- UpdateCategoryByIdProvider -->
<g id="node26" class="node">
<title>UpdateCategoryByIdProvider</title>
<ellipse fill="#fdb462" stroke="black" cx="1368" cy="-104" rx="126.77" ry="18"/>
<text text-anchor="middle" x="1368" y="-99.8" font-family="Times,serif" font-size="14.00">UpdateCategoryByIdProvider</text>
</g>
<!-- UpdateCategoryByIdProvider&#45;&gt;CategoriesModule -->
<g id="edge25" class="edge">
<title>UpdateCategoryByIdProvider&#45;&gt;CategoriesModule</title>
<path fill="none" stroke="black" d="M1368,-122.24C1368,-129.43 1368,-136 1368,-136 1368,-136 4228.03,-136 4228.03,-136 4228.03,-136 4228.03,-151.85 4228.03,-151.85"/>
<polygon fill="black" stroke="black" points="4224.53,-151.85 4228.03,-161.85 4231.53,-151.85 4224.53,-151.85"/>
</g>
<!-- CreateManyOrderProvider -->
<g id="node27" class="node">
<title>CreateManyOrderProvider</title>
<ellipse fill="#fdb462" stroke="black" cx="6520" cy="-104" rx="114.57" ry="18"/>
<text text-anchor="middle" x="6520" y="-99.8" font-family="Times,serif" font-size="14.00">CreateManyOrderProvider</text>
</g>
<!-- CreateManyOrderProvider&#45;&gt;OrdersModule -->
<g id="edge26" class="edge">
<title>CreateManyOrderProvider&#45;&gt;OrdersModule</title>
<path fill="none" stroke="black" d="M6520,-122.15C6520,-135.74 6520,-152 6520,-152 6520,-152 4563.37,-152 4563.37,-152 4563.37,-152 4563.37,-152.98 4563.37,-152.98"/>
<polygon fill="black" stroke="black" points="4559.87,-151.79 4563.37,-161.79 4566.87,-151.79 4559.87,-151.79"/>
</g>
<!-- CreateOrderProvider -->
<g id="node28" class="node">
<title>CreateOrderProvider</title>
<ellipse fill="#fdb462" stroke="black" cx="6295" cy="-104" rx="92.01" ry="18"/>
<text text-anchor="middle" x="6295" y="-99.8" font-family="Times,serif" font-size="14.00">CreateOrderProvider</text>
</g>
<!-- CreateOrderProvider&#45;&gt;OrdersModule -->
<g id="edge27" class="edge">
<title>CreateOrderProvider&#45;&gt;OrdersModule</title>
<path fill="none" stroke="black" d="M6295,-122.04C6295,-135.29 6295,-151 6295,-151 6295,-151 4558.92,-151 4558.92,-151 4558.92,-151 4558.92,-152.08 4558.92,-152.08"/>
<polygon fill="black" stroke="black" points="4555.42,-151.8 4558.92,-161.8 4562.42,-151.8 4555.42,-151.8"/>
</g>
<!-- DeleteOrderByIdProvider -->
<g id="node29" class="node">
<title>DeleteOrderByIdProvider</title>
<ellipse fill="#fdb462" stroke="black" cx="6074" cy="-104" rx="111.13" ry="18"/>
<text text-anchor="middle" x="6074" y="-99.8" font-family="Times,serif" font-size="14.00">DeleteOrderByIdProvider</text>
</g>
<!-- DeleteOrderByIdProvider&#45;&gt;OrdersModule -->
<g id="edge28" class="edge">
<title>DeleteOrderByIdProvider&#45;&gt;OrdersModule</title>
<path fill="none" stroke="black" d="M6074,-122.18C6074,-135.04 6074,-150 6074,-150 6074,-150 4554.47,-150 4554.47,-150 4554.47,-150 4554.47,-151.86 4554.47,-151.86"/>
<polygon fill="black" stroke="black" points="4550.97,-151.86 4554.47,-161.86 4557.97,-151.86 4550.97,-151.86"/>
</g>
<!-- OrdersService -->
<g id="node30" class="node">
<title>OrdersService</title>
<ellipse fill="#fdb462" stroke="black" cx="5878" cy="-104" rx="66.03" ry="18"/>
<text text-anchor="middle" x="5878" y="-99.8" font-family="Times,serif" font-size="14.00">OrdersService</text>
</g>
<!-- OrdersService&#45;&gt;OrdersModule -->
<g id="edge29" class="edge">
<title>OrdersService&#45;&gt;OrdersModule</title>
<path fill="none" stroke="black" d="M5878,-122.04C5878,-134.56 5878,-149 5878,-149 5878,-149 4550.02,-149 4550.02,-149 4550.02,-149 4550.02,-151.97 4550.02,-151.97"/>
<polygon fill="black" stroke="black" points="4546.52,-151.97 4550.02,-161.97 4553.52,-151.97 4546.52,-151.97"/>
</g>
<!-- UpdateOrderByIdProvider -->
<g id="node31" class="node">
<title>UpdateOrderByIdProvider</title>
<ellipse fill="#fdb462" stroke="black" cx="5680" cy="-104" rx="114.01" ry="18"/>
<text text-anchor="middle" x="5680" y="-99.8" font-family="Times,serif" font-size="14.00">UpdateOrderByIdProvider</text>
</g>
<!-- UpdateOrderByIdProvider&#45;&gt;OrdersModule -->
<g id="edge30" class="edge">
<title>UpdateOrderByIdProvider&#45;&gt;OrdersModule</title>
<path fill="none" stroke="black" d="M5680,-122.15C5680,-134.27 5680,-148 5680,-148 5680,-148 4545.58,-148 4545.58,-148 4545.58,-148 4545.58,-151.76 4545.58,-151.76"/>
<polygon fill="black" stroke="black" points="4542.08,-151.76 4545.58,-161.76 4549.08,-151.76 4542.08,-151.76"/>
</g>
<!-- PaginationProvider -->
<g id="node32" class="node">
<title>PaginationProvider</title>
<ellipse fill="#fdb462" stroke="black" cx="6761" cy="-104" rx="85.69" ry="18"/>
<text text-anchor="middle" x="6761" y="-99.8" font-family="Times,serif" font-size="14.00">PaginationProvider</text>
</g>
<!-- PaginationProvider&#45;&gt;PaginationModule -->
<g id="edge31" class="edge">
<title>PaginationProvider&#45;&gt;PaginationModule</title>
<path fill="none" stroke="black" d="M6761,-122.25C6761,-136.18 6761,-153 6761,-153 6761,-153 4646,-153 4646,-153 4646,-153 4646,-153.88 4646,-153.88"/>
<polygon fill="black" stroke="black" points="4642.5,-151.84 4646,-161.84 4649.5,-151.84 4642.5,-151.84"/>
</g>
<!-- CreateManyProductsProvider -->
<g id="node33" class="node">
<title>CreateManyProductsProvider</title>
<ellipse fill="#fdb462" stroke="black" cx="8666" cy="-104" rx="125.62" ry="18"/>
<text text-anchor="middle" x="8666" y="-99.8" font-family="Times,serif" font-size="14.00">CreateManyProductsProvider</text>
</g>
<!-- CreateManyProductsProvider&#45;&gt;ProductsModule -->
<g id="edge32" class="edge">
<title>CreateManyProductsProvider&#45;&gt;ProductsModule</title>
<path fill="none" stroke="black" d="M8666,-122.04C8666,-138.73 8666,-161 8666,-161 8666,-161 4823.74,-161 4823.74,-161 4823.74,-161 4823.74,-161.08 4823.74,-161.08"/>
<polygon fill="black" stroke="black" points="4820.24,-151.82 4823.74,-161.82 4827.24,-151.82 4820.24,-151.82"/>
</g>
<!-- CreateProductProvider -->
<g id="node34" class="node">
<title>CreateProductProvider</title>
<ellipse fill="#fdb462" stroke="black" cx="8423" cy="-104" rx="99.56" ry="18"/>
<text text-anchor="middle" x="8423" y="-99.8" font-family="Times,serif" font-size="14.00">CreateProductProvider</text>
</g>
<!-- CreateProductProvider&#45;&gt;ProductsModule -->
<g id="edge33" class="edge">
<title>CreateProductProvider&#45;&gt;ProductsModule</title>
<path fill="none" stroke="black" d="M8423,-122.03C8423,-138.4 8423,-160 8423,-160 8423,-160 4815.21,-160 4815.21,-160 4815.21,-160 4815.21,-160.18 4815.21,-160.18"/>
<polygon fill="black" stroke="black" points="4811.71,-151.85 4815.21,-161.85 4818.71,-151.85 4811.71,-151.85"/>
</g>
<!-- DeleteProductByIdProvider -->
<g id="node35" class="node">
<title>DeleteProductByIdProvider</title>
<ellipse fill="#fdb462" stroke="black" cx="8187" cy="-104" rx="118.68" ry="18"/>
<text text-anchor="middle" x="8187" y="-99.8" font-family="Times,serif" font-size="14.00">DeleteProductByIdProvider</text>
</g>
<!-- DeleteProductByIdProvider&#45;&gt;ProductsModule -->
<g id="edge34" class="edge">
<title>DeleteProductByIdProvider&#45;&gt;ProductsModule</title>
<path fill="none" stroke="black" d="M8187,-122.01C8187,-138.05 8187,-159 8187,-159 8187,-159 4806.68,-159 4806.68,-159 4806.68,-159 4806.68,-159.29 4806.68,-159.29"/>
<polygon fill="black" stroke="black" points="4803.18,-151.92 4806.68,-161.92 4810.18,-151.92 4803.18,-151.92"/>
</g>
<!-- FindAllProductProvider -->
<g id="node36" class="node">
<title>FindAllProductProvider</title>
<ellipse fill="#fdb462" stroke="black" cx="7946" cy="-104" rx="104.25" ry="18"/>
<text text-anchor="middle" x="7946" y="-99.8" font-family="Times,serif" font-size="14.00">FindAllProductProvider</text>
</g>
<!-- FindAllProductProvider&#45;&gt;ProductsModule -->
<g id="edge35" class="edge">
<title>FindAllProductProvider&#45;&gt;ProductsModule</title>
<path fill="none" stroke="black" d="M7946,-122.28C7946,-137.95 7946,-158 7946,-158 7946,-158 4798.15,-158 4798.15,-158 4798.15,-158 4798.15,-158.38 4798.15,-158.38"/>
<polygon fill="black" stroke="black" points="4794.65,-151.83 4798.15,-161.83 4801.65,-151.83 4794.65,-151.83"/>
</g>
<!-- FindProductByIdProvider -->
<g id="node37" class="node">
<title>FindProductByIdProvider</title>
<ellipse fill="#fdb462" stroke="black" cx="7712" cy="-104" rx="111.2" ry="18"/>
<text text-anchor="middle" x="7712" y="-99.8" font-family="Times,serif" font-size="14.00">FindProductByIdProvider</text>
</g>
<!-- FindProductByIdProvider&#45;&gt;ProductsModule -->
<g id="edge36" class="edge">
<title>FindProductByIdProvider&#45;&gt;ProductsModule</title>
<path fill="none" stroke="black" d="M7712,-122.24C7712,-137.57 7712,-157 7712,-157 7712,-157 4789.62,-157 4789.62,-157 4789.62,-157 4789.62,-157.49 4789.62,-157.49"/>
<polygon fill="black" stroke="black" points="4786.12,-151.88 4789.62,-161.88 4793.12,-151.88 4786.12,-151.88"/>
</g>
<!-- ProductsService -->
<g id="node38" class="node">
<title>ProductsService</title>
<ellipse fill="#fdb462" stroke="black" cx="7509" cy="-104" rx="73.57" ry="18"/>
<text text-anchor="middle" x="7509" y="-99.8" font-family="Times,serif" font-size="14.00">ProductsService</text>
</g>
<!-- ProductsService&#45;&gt;ProductsModule -->
<g id="edge37" class="edge">
<title>ProductsService&#45;&gt;ProductsModule</title>
<path fill="none" stroke="black" d="M7509,-122.19C7509,-137.18 7509,-156 7509,-156 7509,-156 4781.09,-156 4781.09,-156 4781.09,-156 4781.09,-156.58 4781.09,-156.58"/>
<polygon fill="black" stroke="black" points="4777.59,-151.81 4781.09,-161.81 4784.59,-151.81 4777.59,-151.81"/>
</g>
<!-- ReactivateProductByIdProvider -->
<g id="node39" class="node">
<title>ReactivateProductByIdProvider</title>
<ellipse fill="#fdb462" stroke="black" cx="7283" cy="-104" rx="134.29" ry="18"/>
<text text-anchor="middle" x="7283" y="-99.8" font-family="Times,serif" font-size="14.00">ReactivateProductByIdProvider</text>
</g>
<!-- ReactivateProductByIdProvider&#45;&gt;ProductsModule -->
<g id="edge38" class="edge">
<title>ReactivateProductByIdProvider&#45;&gt;ProductsModule</title>
<path fill="none" stroke="black" d="M7283,-122.12C7283,-136.78 7283,-155 7283,-155 7283,-155 4772.56,-155 4772.56,-155 4772.56,-155 4772.56,-155.68 4772.56,-155.68"/>
<polygon fill="black" stroke="black" points="4769.06,-151.83 4772.56,-161.83 4776.06,-151.83 4769.06,-151.83"/>
</g>
<!-- UpdateProductByIdProvider -->
<g id="node40" class="node">
<title>UpdateProductByIdProvider</title>
<ellipse fill="#fdb462" stroke="black" cx="7009" cy="-104" rx="121.55" ry="18"/>
<text text-anchor="middle" x="7009" y="-99.8" font-family="Times,serif" font-size="14.00">UpdateProductByIdProvider</text>
</g>
<!-- UpdateProductByIdProvider&#45;&gt;ProductsModule -->
<g id="edge39" class="edge">
<title>UpdateProductByIdProvider&#45;&gt;ProductsModule</title>
<path fill="none" stroke="black" d="M7009,-122.05C7009,-136.37 7009,-154 7009,-154 7009,-154 4764.03,-154 4764.03,-154 4764.03,-154 4764.03,-154.79 4764.03,-154.79"/>
<polygon fill="black" stroke="black" points="4760.53,-151.94 4764.03,-161.94 4767.53,-151.94 4760.53,-151.94"/>
</g>
<!-- ReviewsService -->
<g id="node41" class="node">
<title>ReviewsService</title>
<ellipse fill="#fdb462" stroke="black" cx="8905" cy="-104" rx="73.49" ry="18"/>
<text text-anchor="middle" x="8905" y="-99.8" font-family="Times,serif" font-size="14.00">ReviewsService</text>
</g>
<!-- ReviewsService&#45;&gt;ReviewsModule -->
<g id="edge40" class="edge">
<title>ReviewsService&#45;&gt;ReviewsModule</title>
<path fill="none" stroke="black" d="M8905,-122.01C8905,-144.49 8905,-180 8905,-180 8905,-180 4967.91,-180 4967.91,-180"/>
<polygon fill="black" stroke="black" points="4967.91,-176.5 4957.91,-180 4967.91,-183.5 4967.91,-176.5"/>
</g>
<!-- CreateManyUsersProvider -->
<g id="node43" class="node">
<title>CreateManyUsersProvider</title>
<ellipse fill="#fdb462" stroke="black" cx="5294" cy="-104" rx="114" ry="18"/>
<text text-anchor="middle" x="5294" y="-99.8" font-family="Times,serif" font-size="14.00">CreateManyUsersProvider</text>
</g>
<!-- CreateManyUsersProvider&#45;&gt;UsersModule -->
<g id="edge42" class="edge">
<title>CreateManyUsersProvider&#45;&gt;UsersModule</title>
<path fill="none" stroke="black" d="M5294,-122.06C5294,-133.44 5294,-146 5294,-146 5294,-146 4443.4,-146 4443.4,-146 4443.4,-146 4443.4,-151.81 4443.4,-151.81"/>
<polygon fill="black" stroke="black" points="4439.9,-151.81 4443.4,-161.81 4446.9,-151.81 4439.9,-151.81"/>
</g>
<!-- CreateUsersProvider -->
<g id="node44" class="node">
<title>CreateUsersProvider</title>
<ellipse fill="#fdb462" stroke="black" cx="5071" cy="-104" rx="91.45" ry="18"/>
<text text-anchor="middle" x="5071" y="-99.8" font-family="Times,serif" font-size="14.00">CreateUsersProvider</text>
</g>
<!-- CreateUsersProvider&#45;&gt;UsersModule -->
<g id="edge43" class="edge">
<title>CreateUsersProvider&#45;&gt;UsersModule</title>
<path fill="none" stroke="black" d="M5071,-122.1C5071,-133.09 5071,-145 5071,-145 5071,-145 4435.09,-145 4435.09,-145 4435.09,-145 4435.09,-151.68 4435.09,-151.68"/>
<polygon fill="black" stroke="black" points="4431.59,-151.68 4435.09,-161.68 4438.59,-151.68 4431.59,-151.68"/>
</g>
<!-- DeleteUserByIdProvider -->
<g id="node45" class="node">
<title>DeleteUserByIdProvider</title>
<ellipse fill="#fdb462" stroke="black" cx="4854" cy="-104" rx="107.06" ry="18"/>
<text text-anchor="middle" x="4854" y="-99.8" font-family="Times,serif" font-size="14.00">DeleteUserByIdProvider</text>
</g>
<!-- DeleteUserByIdProvider&#45;&gt;UsersModule -->
<g id="edge44" class="edge">
<title>DeleteUserByIdProvider&#45;&gt;UsersModule</title>
<path fill="none" stroke="black" d="M4755.5,-111.34C4755.5,-122.88 4755.5,-144 4755.5,-144 4755.5,-144 4426.78,-144 4426.78,-144 4426.78,-144 4426.78,-151.58 4426.78,-151.58"/>
<polygon fill="black" stroke="black" points="4423.28,-151.58 4426.78,-161.58 4430.28,-151.58 4423.28,-151.58"/>
</g>
<!-- FindAllUsersProvider -->
<g id="node46" class="node">
<title>FindAllUsersProvider</title>
<ellipse fill="#fdb462" stroke="black" cx="4633" cy="-104" rx="96.14" ry="18"/>
<text text-anchor="middle" x="4633" y="-99.8" font-family="Times,serif" font-size="14.00">FindAllUsersProvider</text>
</g>
<!-- FindAllUsersProvider&#45;&gt;UsersModule -->
<g id="edge45" class="edge">
<title>FindAllUsersProvider&#45;&gt;UsersModule</title>
<path fill="none" stroke="black" d="M4541.13,-109.42C4541.13,-120.14 4541.13,-143 4541.13,-143 4541.13,-143 4418.47,-143 4418.47,-143 4418.47,-143 4418.47,-151.93 4418.47,-151.93"/>
<polygon fill="black" stroke="black" points="4414.97,-151.93 4418.47,-161.93 4421.97,-151.93 4414.97,-151.93"/>
</g>
<!-- FindOneByEmailProvider -->
<g id="node47" class="node">
<title>FindOneByEmailProvider</title>
<ellipse fill="#fdb462" stroke="black" cx="4406" cy="-104" rx="112.34" ry="18"/>
<text text-anchor="middle" x="4406" y="-99.8" font-family="Times,serif" font-size="14.00">FindOneByEmailProvider</text>
</g>
<!-- FindOneByEmailProvider&#45;&gt;UsersModule -->
<g id="edge46" class="edge">
<title>FindOneByEmailProvider&#45;&gt;UsersModule</title>
<path fill="none" stroke="black" d="M4401.84,-122.01C4401.84,-122.01 4401.84,-151.85 4401.84,-151.85"/>
<polygon fill="black" stroke="black" points="4398.34,-151.85 4401.84,-161.85 4405.34,-151.85 4398.34,-151.85"/>
</g>
<!-- FindOneByIdProvider -->
<g id="node48" class="node">
<title>FindOneByIdProvider</title>
<ellipse fill="#fdb462" stroke="black" cx="4178" cy="-104" rx="97.3" ry="18"/>
<text text-anchor="middle" x="4178" y="-99.8" font-family="Times,serif" font-size="14.00">FindOneByIdProvider</text>
</g>
<!-- FindOneByIdProvider&#45;&gt;UsersModule -->
<g id="edge47" class="edge">
<title>FindOneByIdProvider&#45;&gt;UsersModule</title>
<path fill="none" stroke="black" d="M4270.66,-109.89C4270.66,-115.79 4270.66,-124 4270.66,-124 4270.66,-124 4393.53,-124 4393.53,-124 4393.53,-124 4393.53,-151.97 4393.53,-151.97"/>
<polygon fill="black" stroke="black" points="4390.03,-151.97 4393.53,-161.97 4397.03,-151.97 4390.03,-151.97"/>
</g>
<!-- ReactivateUserByIdProvider -->
<g id="node49" class="node">
<title>ReactivateUserByIdProvider</title>
<ellipse fill="#fdb462" stroke="black" cx="3940" cy="-104" rx="122.67" ry="18"/>
<text text-anchor="middle" x="3940" y="-99.8" font-family="Times,serif" font-size="14.00">ReactivateUserByIdProvider</text>
</g>
<!-- ReactivateUserByIdProvider&#45;&gt;UsersModule -->
<g id="edge48" class="edge">
<title>ReactivateUserByIdProvider&#45;&gt;UsersModule</title>
<path fill="none" stroke="black" d="M4021.48,-117.89C4021.48,-121.8 4021.48,-125 4021.48,-125 4021.48,-125 4385.22,-125 4385.22,-125 4385.22,-125 4385.22,-151.99 4385.22,-151.99"/>
<polygon fill="black" stroke="black" points="4381.72,-151.99 4385.22,-161.99 4388.72,-151.99 4381.72,-151.99"/>
</g>
<!-- UpdateUserByIdProvider -->
<g id="node50" class="node">
<title>UpdateUserByIdProvider</title>
<ellipse fill="#fdb462" stroke="black" cx="3690" cy="-104" rx="109.93" ry="18"/>
<text text-anchor="middle" x="3690" y="-99.8" font-family="Times,serif" font-size="14.00">UpdateUserByIdProvider</text>
</g>
<!-- UpdateUserByIdProvider&#45;&gt;UsersModule -->
<g id="edge49" class="edge">
<title>UpdateUserByIdProvider&#45;&gt;UsersModule</title>
<path fill="none" stroke="black" d="M3690,-122.17C3690,-124.45 3690,-126 3690,-126 3690,-126 4376.91,-126 4376.91,-126 4376.91,-126 4376.91,-151.72 4376.91,-151.72"/>
<polygon fill="black" stroke="black" points="4373.41,-151.72 4376.91,-161.72 4380.41,-151.72 4373.41,-151.72"/>
</g>
<!-- UsersService -->
<g id="node51" class="node">
<title>UsersService</title>
<ellipse fill="#fdb462" stroke="black" cx="3500" cy="-104" rx="61.95" ry="18"/>
<text text-anchor="middle" x="3500" y="-99.8" font-family="Times,serif" font-size="14.00">UsersService</text>
</g>
<!-- UsersService&#45;&gt;UsersModule -->
<g id="edge50" class="edge">
<title>UsersService&#45;&gt;UsersModule</title>
<path fill="none" stroke="black" d="M3500,-122.12C3500,-124.97 3500,-127 3500,-127 3500,-127 4368.6,-127 4368.6,-127 4368.6,-127 4368.6,-151.76 4368.6,-151.76"/>
<polygon fill="black" stroke="black" points="4365.1,-151.76 4368.6,-161.76 4372.1,-151.76 4365.1,-151.76"/>
</g>
</g>
</svg>
